<?xml version="1.0" encoding="UTF-8" standalone="no"?>
<!-- Created with Inkscape (http://www.inkscape.org/) -->

<svg
   xmlns:dc="http://purl.org/dc/elements/1.1/"
   xmlns:cc="http://creativecommons.org/ns#"
   xmlns:rdf="http://www.w3.org/1999/02/22-rdf-syntax-ns#"
   xmlns:svg="http://www.w3.org/2000/svg"
   xmlns="http://www.w3.org/2000/svg"
   xmlns:sodipodi="http://sodipodi.sourceforge.net/DTD/sodipodi-0.dtd"
   xmlns:inkscape="http://www.inkscape.org/namespaces/inkscape"
   id="svg2"
   version="1.1"
   inkscape:version="0.91 r13725"
   xml:space="preserve"
   width="500.64175"
   height="525.59778"
   viewBox="0 0 500.64175 525.59778"
   sodipodi:docname="tree.svg"><metadata
     id="metadata8"><rdf:RDF><cc:Work
         rdf:about=""><dc:format>image/svg+xml</dc:format><dc:type
           rdf:resource="http://purl.org/dc/dcmitype/StillImage" /><dc:title></dc:title></cc:Work></rdf:RDF></metadata><defs
     id="defs6"><clipPath
       clipPathUnits="userSpaceOnUse"
       id="clipPath16"><path
         d="m 0,673 502.125,0 0,-673 L 0,0 0,673 Z"
         id="path18"
         inkscape:connector-curvature="0" /></clipPath></defs><sodipodi:namedview
     pagecolor="#ffffff"
     bordercolor="#666666"
     borderopacity="1"
     objecttolerance="10"
     gridtolerance="10"
     guidetolerance="10"
     inkscape:pageopacity="0"
     inkscape:pageshadow="2"
     inkscape:window-width="3791"
     inkscape:window-height="2136"
     id="namedview4"
     showgrid="false"
     fit-margin-top="0"
     fit-margin-left="0"
     fit-margin-right="0"
     fit-margin-bottom="0"
     inkscape:zoom="1.5869451"
     inkscape:cx="432.74122"
     inkscape:cy="108.04036"
     inkscape:window-x="49"
     inkscape:window-y="24"
     inkscape:window-maximized="1"
     inkscape:current-layer="g10" /><g
     id="g10"
     inkscape:groupmode="layer"
     inkscape:label="tampela_outline"
     transform="matrix(1.25,0,0,-1.25,-44.87775,762.78037)"><g
       id="g6712"
       style="opacity:0.2"><path
         d="m 223.7266,576.8823 c 3.73,11.089 11.82,17.815 17.781,26.671 -3.752,-11.81 -9.51,-21.605 -17.781,-28.893 17.988,0.168 20.73,21.492 21.113,35.564 -13.502,-6.499 -30.529,-9.48 -28.894,-31.119 2.904,-0.429 3.103,-3.564 7.781,-2.223"
         style="fill:#333333;fill-opacity:1;fill-rule:evenodd;stroke:none"
         id="path22"
         inkscape:connector-curvature="0" /><path
         d="m 190.3828,577.9917 c 8.256,-3.964 12.232,-12.216 17.787,-18.889 0.965,16.896 -13.539,18.324 -22.232,25.559 -1.868,-13.357 1.306,-31.285 17.781,-30.006 -0.408,1.888 0.865,2.097 2.225,2.221 -4.993,7.229 -11.157,13.296 -15.561,21.115"
         style="fill:#333333;fill-opacity:1;fill-rule:evenodd;stroke:none"
         id="path26"
         inkscape:connector-curvature="0" /><path
         d="m 379.3164,551.3193 c -5.965,-6.994 -16.943,-8.982 -21.117,-17.781 12.013,-12.293 23.25,10.462 27.793,20.004 -10.043,2.762 -31.475,-1.704 -30.018,-17.781 5.426,7.543 12.434,13.503 23.342,15.558"
         style="fill:#333333;fill-opacity:1;fill-rule:evenodd;stroke:none"
         id="path30"
         inkscape:connector-curvature="0" /><path
         d="m 231.5039,549.0962 c -6.436,-4.679 -14.641,-7.585 -15.559,-17.782 6.463,4.652 11.02,11.211 15.559,17.782 m -15.559,-23.336 c -9.992,16.002 8.807,25.856 22.229,28.895 -3.123,-13.916 -2.818,-31.266 -22.229,-28.895"
         style="fill:#333333;fill-opacity:1;fill-rule:evenodd;stroke:none"
         id="path34"
         inkscape:connector-curvature="0" /><path
         d="m 226.707,511.9707 c -4.898,-1.126 -10.471,-0.837 -13.279,-6.377 4.908,1.105 9.099,3.732 13.279,6.377 m -14.514,-9.516 c -2.447,11.391 11.024,12.53 19.75,11.083 -4.961,-7.124 -8.619,-16.995 -19.75,-11.083"
         style="fill:#333333;fill-opacity:1;fill-rule:evenodd;stroke:none"
         id="path38"
         inkscape:connector-curvature="0" /><path
         d="m 223.3047,477.2891 c -3.945,-1.8 -8.695,-2.519 -10.113,-7.685 3.959,1.78 7.039,4.727 10.113,7.685 m -10.605,-10.55 c -4.047,9.195 7.134,12.489 14.757,12.779 -2.961,-6.872 -4.336,-15.844 -14.757,-12.779"
         style="fill:#333333;fill-opacity:1;fill-rule:evenodd;stroke:none"
         id="path42"
         inkscape:connector-curvature="0" /><path
         d="m 195.3555,489.2388 c -1.414,5.163 -6.17,5.884 -10.117,7.686 3.078,-2.958 6.16,-5.904 10.117,-7.686 m -14.26,9.916 c 7.621,-0.291 18.799,-3.587 14.756,-12.779 -10.422,-3.067 -11.803,5.903 -14.756,12.779"
         style="fill:#333333;fill-opacity:1;fill-rule:evenodd;stroke:none"
         id="path46"
         inkscape:connector-curvature="0" /><path
         d="m 150.5,509.313 c 3.564,3.999 1.582,8.376 0.951,12.667 -0.808,-4.191 -1.609,-8.376 -0.951,-12.667 m 0.568,17.363 c 3.899,-6.559 7.209,-17.732 -2.701,-19.336 -8.239,7.077 -1.465,13.112 2.701,19.336"
         style="fill:#333333;fill-opacity:1;fill-rule:evenodd;stroke:none"
         id="path50"
         inkscape:connector-curvature="0" /><path
         d="m 311.7598,498.6367 c 4.35,-3.123 8.492,-0.695 12.691,0.388 -4.25,0.365 -8.498,0.716 -12.691,-0.388 m 17.32,1.268 c -6.107,-4.571 -16.867,-9.045 -19.515,0.644 6.177,8.941 12.898,2.838 19.515,-0.644"
         style="fill:#333333;fill-opacity:1;fill-rule:evenodd;stroke:none"
         id="path54"
         inkscape:connector-curvature="0" /><path
         d="m 313.9258,401.9004 c 1.189,5.223 -2.662,8.103 -5.285,11.551 1.312,-4.057 2.637,-8.11 5.285,-11.551 m -7.893,15.477 c 6.58,-3.855 14.887,-12.036 6.975,-18.235 -10.633,2.217 -7.615,10.779 -6.975,18.235"
         style="fill:#333333;fill-opacity:1;fill-rule:evenodd;stroke:none"
         id="path58"
         inkscape:connector-curvature="0" /><path
         d="m 419.0566,370.1641 c 3.994,-3.555 8.371,-1.557 12.664,-0.915 -4.195,0.798 -8.389,1.585 -12.664,0.915 m 17.359,-0.517 c -6.545,-3.92 -17.714,-7.262 -19.343,2.644 7.045,8.263 13.111,1.5 19.343,-2.644"
         style="fill:#333333;fill-opacity:1;fill-rule:evenodd;stroke:none"
         id="path62"
         inkscape:connector-curvature="0" /><path
         d="m 87.8691,430.6582 c 0.56,5.326 -3.614,7.721 -6.64,10.828 1.798,-3.871 3.603,-7.737 6.64,-10.828 m -9.691,14.412 c 6.995,-3.037 16.22,-10.16 9.115,-17.264 -10.822,0.924 -8.854,9.783 -9.115,17.264"
         style="fill:#333333;fill-opacity:1;fill-rule:evenodd;stroke:none"
         id="path66"
         inkscape:connector-curvature="0" /><path
         d="m 395.5859,347.7764 c -1.205,4.882 -0.996,10.456 -6.58,13.186 1.176,-4.895 3.875,-9.043 6.58,-13.186 m -9.738,14.368 c 11.355,2.624 12.691,-10.83 11.383,-19.577 -7.2,4.851 -17.124,8.36 -11.383,19.577"
         style="fill:#333333;fill-opacity:1;fill-rule:evenodd;stroke:none"
         id="path70"
         inkscape:connector-curvature="0" /><path
         d="m 325.9688,541.3193 c -5.262,-0.678 -14.307,-7.164 -15.553,-15.56 7.559,2.813 9.17,11.567 15.553,15.56 m -13.33,-21.118 c -12.397,13.147 6.814,25.182 18.891,27.784 -2.579,-12.987 -3.153,-27.966 -18.891,-27.784"
         style="fill:#333333;fill-opacity:1;fill-rule:evenodd;stroke:none"
         id="path74"
         inkscape:connector-curvature="0" /><path
         d="m 249.2891,545.7646 c -4.773,-5.382 -2.869,-21.69 4.443,-22.231 -0.711,4.883 -7.191,9.812 -3.33,15.561 1.104,-5.558 4.752,-8.579 4.442,-15.561 3.847,-0.876 4.695,1.238 6.672,2.226 0.695,11.439 -8.11,13.381 -12.227,20.005"
         style="fill:#333333;fill-opacity:1;fill-rule:evenodd;stroke:none"
         id="path78"
         inkscape:connector-curvature="0" /><path
         d="m 188.1621,539.0947 c -3.373,-4.181 -4.498,-22.187 2.221,-23.339 -0.158,8.363 -3.703,13.34 -2.221,23.339 m 7.775,-25.56 c -19.908,-2.857 -17.755,25.58 -7.775,32.23 4.43,-8.06 15.529,-19.154 7.775,-32.23"
         style="fill:#333333;fill-opacity:1;fill-rule:evenodd;stroke:none"
         id="path82"
         inkscape:connector-curvature="0" /><path
         d="m 280.4063,523.5332 c -3.33,1.069 -8.43,-5.622 -7.783,-12.223 4.568,2.107 3.699,9.642 7.783,12.223 m -6.662,-15.558 c -8.02,8.592 1.301,19.259 8.883,22.229 1.293,-10.426 1.74,-24.892 -8.883,-22.229"
         style="fill:#333333;fill-opacity:1;fill-rule:evenodd;stroke:none"
         id="path86"
         inkscape:connector-curvature="0" /><path
         d="m 73.3779,527.8042 c 7.626,-3.79 19.626,-8.119 27.786,-7.777 -5.465,6.392 -16.286,7.422 -27.786,7.777 m 30.011,-4.447 c -0.546,-6.181 0.12,-9.667 -4.449,-13.336 -20.112,-2.332 -26.551,9.018 -33.342,20.004 15.668,2.329 30.282,3.811 37.791,-6.668"
         style="fill:#333333;fill-opacity:1;fill-rule:evenodd;stroke:none"
         id="path90"
         inkscape:connector-curvature="0" /><path
         d="m 97.2891,337.5791 c 5.678,0.764 13.988,2.874 18.408,6.138 -5.449,1.506 -11.865,-2 -18.408,-6.138 m 18.389,8.831 c 2.027,-3.647 3.715,-5.339 2.549,-9.104 -10.319,-8.879 -18.182,-4.982 -26.108,-1.422 7.848,7.202 15.431,13.538 23.559,10.526"
         style="fill:#333333;fill-opacity:1;fill-rule:evenodd;stroke:none"
         id="path94"
         inkscape:connector-curvature="0" /><path
         d="m 377.0996,521.314 c 7.914,-7.272 20.754,-9.624 30.006,-15.559 -7.82,7.367 -14.401,15.977 -30.006,15.559 m 37.783,-20.004 c -19.467,-1.757 -43.088,-3.807 -43.342,16.667 2.356,2.461 5.034,4.597 6.672,7.783 22.616,2.25 27.846,-12.902 36.67,-24.45"
         style="fill:#333333;fill-opacity:1;fill-rule:evenodd;stroke:none"
         id="path98"
         inkscape:connector-curvature="0" /><path
         d="m 124.8086,514.6465 c -0.07,-2.465 8.791,-14.795 14.451,-18.895 -1.14,9.971 -9.021,13.207 -14.451,18.895 m 17.787,-17.784 c -11.687,-18.314 -25.784,9.584 -22.232,23.339 8.916,-6.276 21.551,-8.827 22.232,-23.339"
         style="fill:#333333;fill-opacity:1;fill-rule:evenodd;stroke:none"
         id="path102"
         inkscape:connector-curvature="0" /><path
         d="m 350.4199,513.5352 c 4.41,-2.261 8.076,-5.259 12.229,-7.78 -2.45,-3.124 -12.631,3.094 -14.45,7.78 -3.597,1.373 -0.849,-3.6 -4.441,-2.225 -0.051,-11.898 12.082,-11.623 24.445,-11.113 -4.265,6.104 -5.986,14.756 -17.783,13.338"
         style="fill:#333333;fill-opacity:1;fill-rule:evenodd;stroke:none"
         id="path106"
         inkscape:connector-curvature="0" /><path
         d="m 242.6172,496.8623 c -0.256,-1.566 4.086,-17.257 11.115,-18.895 -0.066,5.706 -7.213,13.38 -11.115,18.895 m 18.898,-15.558 c -12.63,-15.488 -26.373,7.702 -22.232,24.451 8.766,-6.793 21.887,-9.243 22.232,-24.451"
         style="fill:#333333;fill-opacity:1;fill-rule:evenodd;stroke:none"
         id="path110"
         inkscape:connector-curvature="0" /><path
         d="m 94.3389,496.7817 c 2.709,-5.418 12.446,-2.058 18.286,-3.561 -2.5,5.676 -10.48,4.514 -18.286,3.561 m 18.782,2.085 c 0.057,-5.21 2.957,-6.856 1.221,-11.048 -11.142,-7.738 -24.682,0.203 -29.945,7.864 11.302,3.121 18.675,8.899 28.724,3.184"
         style="fill:#333333;fill-opacity:1;fill-rule:evenodd;stroke:none"
         id="path114"
         inkscape:connector-curvature="0" /><path
         d="m 352.6484,482.4146 c -2.311,1.36 -14.824,-5.774 -16.678,-12.226 8.748,0.891 9.983,9.291 16.678,12.226 m -16.678,-17.783 c -6.963,16.587 11.444,22.081 25.567,24.452 -4.346,-11.757 -8.416,-29.15 -25.567,-24.452"
         style="fill:#333333;fill-opacity:1;fill-rule:evenodd;stroke:none"
         id="path118"
         inkscape:connector-curvature="0" /><path
         d="m 308.1895,482.4146 c -2.139,1.545 -14.002,-5.834 -15.563,-12.226 7.545,1.72 10.118,8.417 15.563,12.226 m -15.563,-17.783 c -6.685,14.845 8.891,21.658 22.231,23.341 -3.848,-11.343 -5.273,-25.1 -22.231,-23.341"
         style="fill:#333333;fill-opacity:1;fill-rule:evenodd;stroke:none"
         id="path122"
         inkscape:connector-curvature="0" /><path
         d="m 117.0332,472.4121 c 3.865,-5.025 16.92,-0.86 24.451,-2.223 -4.533,8.7 -14.374,0.593 -24.451,2.223 m 27.787,-6.667 c -8.812,-12.157 -29.899,-2.359 -36.679,4.444 8.32,6.72 36.013,15.162 36.679,-4.444"
         style="fill:#333333;fill-opacity:1;fill-rule:evenodd;stroke:none"
         id="path126"
         inkscape:connector-curvature="0" /><path
         d="m 338.1973,447.9629 c -4.748,-5.093 -15.252,-20.25 -7.777,-26.674 1.082,10.401 5.349,17.612 7.777,26.674 m 0,-31.121 c -6.52,-0.965 -9.99,1.129 -13.33,3.335 -5.486,18.651 7.244,28.157 16.664,35.564 3.721,-14.538 6.334,-28.839 -3.334,-38.899"
         style="fill:#333333;fill-opacity:1;fill-rule:evenodd;stroke:none"
         id="path130"
         inkscape:connector-curvature="0" /><path
         d="m 361.5371,426.8438 23.338,0 c -5.354,3.199 -20.305,7.083 -23.338,0 m 34.455,-1.107 c -8.781,-6.456 -27.516,-15.463 -37.793,-4.448 -2.683,21.087 29.604,12.664 37.793,4.448"
         style="fill:#333333;fill-opacity:1;fill-rule:evenodd;stroke:none"
         id="path134"
         inkscape:connector-curvature="0" /><path
         d="m 372.0273,395.5537 c 4.615,3.721 9.24,7.443 13.857,11.163 -4.711,-0.661 -15.445,-5.506 -13.857,-11.163 m 20.982,15.824 c -2.127,-8.027 -8.931,-22.341 -20.298,-20.717 -11.69,11.233 11.507,21.684 20.298,20.717"
         style="fill:#333333;fill-opacity:1;fill-rule:evenodd;stroke:none"
         id="path138"
         inkscape:connector-curvature="0" /><path
         d="m 284.8809,560.792 c -3.639,-6.671 -8.055,-12.901 -11.877,-19.47 -2.939,-0.428 -4.394,1.799 -5.773,4.157 1.73,9.547 9.076,15.93 21.033,19.719 -2.375,-9.786 0.39,-22.471 -13.586,-25.719 4.978,6.215 9.596,12.629 10.203,21.313"
         style="fill:#333333;fill-opacity:1;fill-rule:evenodd;stroke:none"
         id="path142"
         inkscape:connector-curvature="0" /><path
         d="m 165.2559,559.6978 c 5.291,-2.723 10.242,-6.068 15.455,-8.934 0.389,-2.295 -1.33,-3.474 -3.15,-4.597 -7.5,1.179 -12.631,6.815 -15.811,16.101 7.699,-1.682 17.574,0.717 20.373,-10.162 -4.951,3.781 -10.058,7.276 -16.867,7.592"
         style="fill:#333333;fill-opacity:1;fill-rule:evenodd;stroke:none"
         id="path146"
         inkscape:connector-curvature="0" /><path
         d="m 110.4004,535.4624 c 2.218,-3.56 4.009,-7.374 6.135,-10.99 -0.596,-1.529 -2.057,-1.623 -3.563,-1.648 -4.124,3.42 -5.197,8.687 -3.777,15.46 4.06,-3.798 10.91,-5.911 8.678,-13.51 -1.635,4.08 -3.471,8.044 -7.473,10.688"
         style="fill:#333333;fill-opacity:1;fill-rule:evenodd;stroke:none"
         id="path150"
         inkscape:connector-curvature="0" /><path
         d="m 64.4277,422.4023 c 4.994,-2.785 11.42,-4.137 15.561,-7.781 2.968,5.797 -10.829,9.624 -15.561,7.781 m 18.893,-11.113 c -12.477,-7.345 -22.754,4.904 -25.567,14.447 13.779,1.567 26.438,1.177 25.567,-14.447"
         style="fill:#333333;fill-opacity:1;fill-rule:evenodd;stroke:none"
         id="path154"
         inkscape:connector-curvature="0" /><path
         d="m 158.1543,410.1738 c -2.703,-0.193 4.998,-7.998 4.447,-13.334 7.211,1.83 -1.808,10.85 -4.447,13.334 m 2.221,-17.779 c -7.483,1.183 -11.057,17.636 -5.557,24.447 7.549,-3.412 21.715,-20.304 5.557,-24.447"
         style="fill:#333333;fill-opacity:1;fill-rule:evenodd;stroke:none"
         id="path158"
         inkscape:connector-curvature="0" /><path
         d="m 343,391.1514 c 2.402,4.801 13.088,7.24 10.914,8.855 -3.553,-0.678 -16.014,-3.434 -10.914,-8.855 m 17.311,12.684 c 0.978,-8.699 -10.883,-20.652 -17.831,-17.625 -11.396,12.181 9.635,18.807 17.831,17.625"
         style="fill:#333333;fill-opacity:1;fill-rule:evenodd;stroke:none"
         id="path162"
         inkscape:connector-curvature="0" /><path
         d="m 72.5752,396.8398 c -6.712,8.416 -18.614,-4.454 -26.671,-5.561 0.41,-1.888 -0.864,-2.094 -2.225,-2.221 8.537,-0.741 18.27,6.918 28.896,7.782 m -16.669,6.666 c 11.666,3.189 22.285,-1.587 22.229,-9.998 -0.114,-16.41 -26.712,-12.061 -42.233,-10.005 4.614,4.706 11.422,17.661 20.004,20.003"
         style="fill:#333333;fill-opacity:1;fill-rule:evenodd;stroke:none"
         id="path166"
         inkscape:connector-curvature="0" /><path
         d="m 89.248,380.167 c -7.77,-2.977 -11.771,-9.716 -15.559,-16.672 5.502,5.237 12.612,8.877 15.559,16.672 m 5.555,-2.224 c 0.949,-15.765 -14.217,-15.416 -24.447,-20.003 -0.042,13.925 10.953,30.228 24.447,20.003"
         style="fill:#333333;fill-opacity:1;fill-rule:evenodd;stroke:none"
         id="path170"
         inkscape:connector-curvature="0" /><path
         d="m 127.0371,353.4932 c -0.313,7.734 8.883,15.555 15.559,20.008 -16.196,0.634 -18.041,-13.08 -21.118,-25.562 11.988,3.748 29.704,7.107 25.559,23.341 l -2.217,0 c -6.963,-4.899 -12.822,-10.891 -17.783,-17.787"
         style="fill:#333333;fill-opacity:1;fill-rule:evenodd;stroke:none"
         id="path174"
         inkscape:connector-curvature="0" /><path
         d="m 414.8828,357.9404 c -0.482,-5.891 6.738,-13.101 8.893,-20.004 -0.118,5.093 -2.03,17.966 -8.893,20.004 m 12.223,-25.563 c -10.217,4.969 -21.354,9.02 -20,25.563 15.668,6.957 22.511,-7.683 20,-25.563"
         style="fill:#333333;fill-opacity:1;fill-rule:evenodd;stroke:none"
         id="path178"
         inkscape:connector-curvature="0" /><path
         d="m 338.1973,337.9365 c -1.289,-0.186 -1.977,0.247 -2.227,1.111 -4.576,-5.427 -4.459,-15.541 -8.888,-21.117 5.304,0.643 8.861,12.617 11.115,20.006 m 2.223,0 c 1.804,-16.254 -8.827,-20.069 -15.553,-27.783 -7.213,14.969 1.361,44.465 15.553,27.783"
         style="fill:#333333;fill-opacity:1;fill-rule:evenodd;stroke:none"
         id="path182"
         inkscape:connector-curvature="0" /><path
         d="m 152.5957,337.9365 c -8.785,-1.364 -6.645,-21.59 -4.441,-24.453 0.158,9.473 3.154,16.112 4.441,24.453 m -12.225,-11.111 c 2.033,14.636 18.936,18.302 21.116,4.444 2.4,-15.25 -9.467,-18.824 -16.666,-28.9 0.6,11.671 -5.895,14.05 -4.45,24.456"
         style="fill:#333333;fill-opacity:1;fill-rule:evenodd;stroke:none"
         id="path186"
         inkscape:connector-curvature="0" /><path
         d="m 214.834,292.3701 c 3.076,-49.016 -24.307,-77.199 -50.008,-101.137 46.656,0.94 98.227,-4.549 142.252,1.116 -29.674,13.434 -52.39,57.121 -55.572,105.574 -3.451,52.677 46.021,107.239 81.135,63.349 1.226,7.174 -10.362,11.113 -12.225,18.895 11.289,3.783 25.496,-4.75 37.783,0 -13.621,2.304 -24.439,7.422 -42.224,5.557 4.357,6.753 11.062,11.162 17.783,15.561 2.289,8.182 17.295,15.151 14.441,21.117 -23.605,-17.763 -41.043,-46.796 -84.467,-41.123 -2.607,0.354 -2.484,3.439 -4.447,4.445 1.918,25.129 7.217,46.875 22.233,58.903 28.107,0.045 42.976,13.33 51.123,33.341 -10.52,-12.852 -30.496,-31.416 -52.235,-22.227 0.094,1.579 0.178,3.148 -1.111,3.336 2.324,9.231 11.518,25.807 21.838,37.558 8.877,10.096 19.236,15.871 19.283,19.121 -20.566,-10.185 -34.291,-27.2 -44.459,-47.786 -5.527,15.587 -5.785,36.438 -15.553,47.786 2.811,-16.067 10.442,-43.906 4.44,-65.572 -5.008,-18.074 -13.832,-37.723 -21.117,-52.234 -15.536,-30.979 -30.854,38.473 -33.508,57.622 -4.672,33.723 -3.438,60.313 -3.166,87.969 -9.278,-34.701 -8.801,-86.41 1.117,-120.029 -1.119,-1.48 -1.836,-3.36 -3.338,-4.446 -10.336,7.168 -18.1,20.959 -27.781,31.118 -8.211,8.615 -17.576,15.444 -26.676,23.339 18.662,-32.091 55.33,-55.802 57.795,-107.805 -30.815,11.423 -57.799,26.674 -97.804,28.899 8.584,-7.744 22.341,-7.13 33.339,-11.114 12.867,-4.667 25.094,-9.725 34.453,-16.668 -5.453,-7.892 -16.359,-10.317 -21.119,-18.896 11.383,3.225 22.301,13.612 33.344,11.112 13.148,-2.973 22.695,-32.747 25.562,-51.121 l -1.111,-15.56 z"
         style="fill:#333333;fill-opacity:1;fill-rule:evenodd;stroke:none"
         id="path190"
         inkscape:connector-curvature="0" /><path
         d="m 363.7617,462.4082 c -5.66,-2.494 -9.734,-6.571 -12.229,-12.224 5.801,2.351 8.444,7.859 12.229,12.224 m -11.113,-15.559 c -6.194,9.767 5.369,17.38 14.443,18.895 -1.283,-9.824 -1.779,-20.448 -14.443,-18.895"
         style="fill:#333333;fill-opacity:1;fill-rule:evenodd;stroke:none"
         id="path194"
         inkscape:connector-curvature="0" /><path
         d="m 119.2559,422.4023 c 5.822,-4.184 10.93,-9.081 14.447,-15.561 4.813,6.852 -7.236,13.592 -14.447,15.561 m 18.891,-14.45 c -0.47,-2.629 -2.635,-6.12 -6.666,-6.667 -11.219,-1.526 -16.489,17.916 -16.672,26.67 8.207,-3.74 25.633,-7.188 23.338,-20.003"
         style="fill:#333333;fill-opacity:1;fill-rule:evenodd;stroke:none"
         id="path198"
         inkscape:connector-curvature="0" /><path
         d="m 96.3047,420.4092 c 4.575,-3.288 8.592,-7.139 11.362,-12.235 3.789,5.388 -5.692,10.687 -11.362,12.235 m 14.86,-11.365 c -0.368,-2.067 -2.075,-4.812 -5.247,-5.241 -8.82,-1.205 -12.972,14.093 -13.113,20.978 6.453,-2.946 20.164,-5.658 18.36,-15.737"
         style="fill:#333333;fill-opacity:1;fill-rule:evenodd;stroke:none"
         id="path202"
         inkscape:connector-curvature="0" /><path
         d="m 389.3164,383.5029 c 7.729,0.79 11.961,5.084 18.895,6.665 -6.034,1.944 -15.997,-1.765 -18.895,-6.665 m 25.566,7.776 c -8.019,-4.937 -11.828,-17.506 -25.566,-13.336 -6.682,15.353 15.109,19.037 25.566,13.336"
         style="fill:#333333;fill-opacity:1;fill-rule:evenodd;stroke:none"
         id="path206"
         inkscape:connector-curvature="0" /><path
         d="m 112.5889,383.5029 c -6.742,-1.035 -7.663,-7.896 -11.113,-12.223 4.487,3.285 9.229,6.325 11.113,12.223 m 4.444,-1.114 c 1.376,-13.233 -11.101,-12.608 -18.894,-16.671 0.645,10.9 7.712,23.218 18.894,16.671"
         style="fill:#333333;fill-opacity:1;fill-rule:evenodd;stroke:none"
         id="path210"
         inkscape:connector-curvature="0" /><path
         d="m 170.377,347.9395 c -1.076,-7.75 3.668,-9.673 4.441,-15.562 1.637,3.89 0.041,14.091 -4.441,15.562 m 10.004,0 c 1.082,-7.212 1.359,-13.897 -1.113,-20.007 -12.616,0.083 -15.895,29.751 1.113,20.007"
         style="fill:#333333;fill-opacity:1;fill-rule:evenodd;stroke:none"
         id="path214"
         inkscape:connector-curvature="0" /><path
         d="m 167.0488,495.7515 c -3.643,-6.028 3.244,-20.34 7.77,-25.563 2.775,9.907 -5.731,16.898 -7.77,25.563 m 11.109,-25.563 c -1.064,-1.935 -6.519,-5.69 -10.005,-5.557 -15.211,0.6 -13.713,30.381 -7.778,43.344 5.791,-8.784 26.508,-21.927 17.783,-37.787"
         style="fill:#333333;fill-opacity:1;fill-rule:evenodd;stroke:none"
         id="path218"
         inkscape:connector-curvature="0" /><path
         d="m 82.7188,473.541 c 4.283,-3.236 7.652,3.035 13.068,2.012 -3.569,6.128 -8.322,-2.742 -13.068,-2.012 m 16.086,-2.012 c -4.586,-5.077 -12.705,-3.762 -21.115,-3.016 0.609,7.543 20.902,19.333 21.115,3.016"
         style="fill:#333333;fill-opacity:1;fill-rule:evenodd;stroke:none"
         id="path222"
         inkscape:connector-curvature="0" /><path
         d="m 87.6445,319.4004 c 5.472,-2.304 7.375,5.332 13.456,5.706 -5.491,5.597 -8.176,-5.198 -13.456,-5.706 m 17.783,2.216 c -3.542,-6.69 -12.595,-7.484 -21.81,-8.968 -1.391,8.25 17.15,26.389 21.81,8.968"
         style="fill:#333333;fill-opacity:1;fill-rule:evenodd;stroke:none"
         id="path226"
         inkscape:connector-curvature="0" /><path
         d="m 247.0645,462.4082 c -3.387,-6.008 4.66,-10.127 4.441,-16.668 5.957,4.981 -3.378,11.555 -4.441,16.668 m -3.338,5.562 c 5.729,-5.763 13.828,-9.145 11.117,-23.343 -12.213,-9.743 -17.574,14.733 -11.117,23.343"
         style="fill:#333333;fill-opacity:1;fill-rule:evenodd;stroke:none"
         id="path230"
         inkscape:connector-curvature="0" /><path
         d="m 156.8652,454.6309 c -4.133,-1.84 -14.741,-3.707 -17.783,-10.004 6,1.778 10.328,5.229 17.783,5.558 l 0,4.446 z m 5.557,-6.668 c -3.563,-10.301 -18.446,-9.504 -31.118,-7.782 5.649,8.432 10.413,17.741 25.561,16.672 1.219,-3.595 5.326,-4.303 5.557,-8.89"
         style="fill:#333333;fill-opacity:1;fill-rule:evenodd;stroke:none"
         id="path234"
         inkscape:connector-curvature="0" /><path
         d="m 343.7578,373.501 c 4.328,-7.154 14.662,-8.304 21.113,-13.34 -2.802,4.249 -10.519,13.18 -21.113,13.34 m 27.783,-17.783 c -16.504,-0.572 -33.09,-1.235 -33.344,14.446 10.874,15.743 30.532,-1.687 33.344,-14.446"
         style="fill:#333333;fill-opacity:1;fill-rule:evenodd;stroke:none"
         id="path238"
         inkscape:connector-curvature="0" /><path
         d="m 392.9238,456.332 c -5.844,3.945 -10.881,-2.432 -15.564,-3.336 5.47,-3.568 10.57,2.742 15.564,3.336 m 10.002,3.334 c -3.756,-7.578 -22.76,-26.028 -26.676,-6.67 3.412,8.072 16.715,11.628 26.676,6.67"
         style="fill:#333333;fill-opacity:1;fill-rule:evenodd;stroke:none"
         id="path242"
         inkscape:connector-curvature="0" /><path
         d="m 414.3496,442.8926 c -3.893,3.686 -8.455,-0.472 -12.076,-0.574 3.646,-3.35 8.262,0.75 12.076,0.574 m 7.914,1.265 c -3.756,-5.22 -20.285,-16.701 -20.826,-1.699 3.557,5.629 13.975,6.65 20.826,1.699"
         style="fill:#333333;fill-opacity:1;fill-rule:evenodd;stroke:none"
         id="path246"
         inkscape:connector-curvature="0" /><path
         d="m 361.5371,343.4932 c 3.344,-3.691 10.016,-4.063 15.563,-5.557 -2.956,4.089 -8.163,5.92 -15.563,5.557 m -3.338,-3.337 c 1.252,12.227 24.537,3.326 26.676,-5.555 -8.592,-3.438 -27.639,-3.927 -26.676,5.555"
         style="fill:#333333;fill-opacity:1;fill-rule:evenodd;stroke:none"
         id="path250"
         inkscape:connector-curvature="0" /><path
         d="m 127.0371,332.3779 c -8.3,-3.187 -11.629,-11.343 -13.342,-21.117 3.668,7.821 11.202,11.772 13.342,21.117 m 7.777,-1.108 c 0.84,-18.249 -12.881,-21.943 -25.561,-26.674 -1.085,18.168 8.862,36.577 25.561,26.674"
         style="fill:#333333;fill-opacity:1;fill-rule:evenodd;stroke:none"
         id="path254"
         inkscape:connector-curvature="0" /><path
         d="m 353.752,324.6006 c -1.785,0.312 -1.912,-1.053 -3.332,-1.114 0.129,-12.095 3.439,-21.012 10.004,-26.67 -2.723,8.762 -5.293,17.68 -6.672,27.784 m -7.777,-2.225 c 4.363,2.679 7.078,7.005 13.338,7.779 14.451,-7.428 9.564,-31.509 4.449,-45.564 -7.871,10.657 -20.678,16.369 -17.787,37.785"
         style="fill:#333333;fill-opacity:1;fill-rule:evenodd;stroke:none"
         id="path258"
         inkscape:connector-curvature="0" /><path
         d="m 221.748,564.2021 c 0.85,-0.245 0.779,0.425 1.5,0.303 0.377,-0.973 -0.969,-0.23 -0.596,-1.204 2.709,-0.003 4.647,0.767 5.41,2.707 -0.209,1.295 -1.218,1.787 -0.904,3.607 -3.674,1.814 -6.092,-1.067 -5.41,-5.413"
         style="fill:#333333;fill-opacity:1;fill-rule:evenodd;stroke:none"
         id="path262"
         inkscape:connector-curvature="0" /><path
         d="m 216.0371,569.918 c -0.074,-1.732 -1.264,-2.344 -1.504,-3.91 1.008,-1.698 3.846,-1.568 5.109,-3.003 0.668,0.033 0.129,1.274 0.303,1.803 1.153,0.054 0.11,-0.247 0.303,-0.905 3.162,2.422 -0.549,7.523 -4.211,6.015"
         style="fill:#333333;fill-opacity:1;fill-rule:evenodd;stroke:none"
         id="path266"
         inkscape:connector-curvature="0" /><path
         d="m 213.6309,563.9033 c -0.461,-1.602 -0.943,-4.586 -1.199,-5.41 1.992,0.494 2.019,-0.984 3.304,-1.204 1.983,0.727 3.2,2.211 4.209,3.906 -0.267,0.235 -0.677,0.326 -1.199,0.302 0.051,0.354 0.545,0.257 0.897,0.303 -0.537,2.168 -3.272,2.141 -6.012,2.103"
         style="fill:#333333;fill-opacity:1;fill-rule:evenodd;stroke:none"
         id="path270"
         inkscape:connector-curvature="0" /><path
         d="m 224.1563,561.1958 c -0.453,-0.986 -0.355,1.008 -1.203,0.604 -0.524,-4.331 4.293,-5.532 6.912,-3.307 -0.332,1.77 0.381,3.567 -0.898,4.808 -2.338,-0.428 -6.745,0.281 -4.811,-2.105"
         style="fill:#333333;fill-opacity:1;fill-rule:evenodd;stroke:none"
         id="path274"
         inkscape:connector-curvature="0" /><path
         d="m 222.3516,562.7002 c -0.695,0.096 -1.154,-0.05 -1.504,-0.298 0.057,-0.927 1.619,-0.633 1.504,0.298"
         style="fill:#333333;fill-opacity:1;fill-rule:evenodd;stroke:none"
         id="path278"
         inkscape:connector-curvature="0" /><path
         d="m 222.3516,560.5967 c -0.963,0.264 -0.621,-0.782 -1.205,-0.901 -0.377,0.073 -0.299,0.596 0,0.602 -3.535,0.612 -3.973,-6.608 -0.299,-7.218 0.809,0.893 2.205,1.206 3.606,1.505 0.474,3.182 -1.608,3.801 -2.102,6.012"
         style="fill:#333333;fill-opacity:1;fill-rule:evenodd;stroke:none"
         id="path282"
         inkscape:connector-curvature="0" /><path
         d="m 347.041,347.166 c 0.766,-0.227 0.701,0.38 1.354,0.268 0.332,-0.877 -0.879,-0.205 -0.545,-1.085 2.447,-10e-4 4.193,0.687 4.89,2.44 -0.193,1.167 -1.107,1.612 -0.824,3.252 -3.314,1.638 -5.49,-0.962 -4.875,-4.875"
         style="fill:#333333;fill-opacity:1;fill-rule:evenodd;stroke:none"
         id="path286"
         inkscape:connector-curvature="0" /><path
         d="m 341.8867,352.3145 c -0.064,-1.561 -1.141,-2.113 -1.354,-3.525 0.909,-1.53 3.465,-1.418 4.612,-2.714 0.594,0.038 0.117,1.153 0.267,1.632 1.038,0.05 0.1,-0.225 0.27,-0.816 2.853,2.185 -0.486,6.782 -3.795,5.423"
         style="fill:#333333;fill-opacity:1;fill-rule:evenodd;stroke:none"
         id="path290"
         inkscape:connector-curvature="0" /><path
         d="m 339.7188,346.8916 c -0.416,-1.445 -0.85,-4.136 -1.086,-4.881 1.803,0.446 1.83,-0.881 2.984,-1.082 1.784,0.654 2.893,1.993 3.795,3.524 -0.24,0.21 -0.607,0.293 -1.086,0.269 0.047,0.32 0.5,0.228 0.819,0.274 -0.483,1.956 -2.955,1.929 -5.426,1.896"
         style="fill:#333333;fill-opacity:1;fill-rule:evenodd;stroke:none"
         id="path294"
         inkscape:connector-curvature="0" /><path
         d="m 349.2109,344.4521 c -0.402,-0.896 -0.318,0.906 -1.092,0.544 -0.469,-3.904 3.877,-4.992 6.242,-2.985 -0.308,1.602 0.34,3.219 -0.818,4.337 -2.102,-0.386 -6.074,0.255 -4.332,-1.896"
         style="fill:#333333;fill-opacity:1;fill-rule:evenodd;stroke:none"
         id="path298"
         inkscape:connector-curvature="0" /><path
         d="m 347.582,345.8086 c -0.623,0.087 -1.041,-0.046 -1.352,-0.274 0.047,-0.829 1.459,-0.567 1.352,0.274"
         style="fill:#333333;fill-opacity:1;fill-rule:evenodd;stroke:none"
         id="path302"
         inkscape:connector-curvature="0" /><path
         d="m 347.582,343.9102 c -0.869,0.238 -0.559,-0.704 -1.084,-0.813 -0.342,0.068 -0.268,0.539 0,0.543 -3.187,0.553 -3.584,-5.959 -0.268,-6.509 0.729,0.805 1.981,1.087 3.248,1.354 0.432,2.87 -1.453,3.428 -1.896,5.425"
         style="fill:#333333;fill-opacity:1;fill-rule:evenodd;stroke:none"
         id="path306"
         inkscape:connector-curvature="0" /><path
         d="m 376.834,484.5322 c 0.832,-0.242 0.762,0.409 1.469,0.292 0.361,-0.945 -0.949,-0.224 -0.584,-1.172 2.629,-0.003 4.517,0.746 5.26,2.63 -0.2,1.265 -1.184,1.743 -0.877,3.511 -3.579,1.766 -5.926,-1.037 -5.268,-5.261"
         style="fill:#333333;fill-opacity:1;fill-rule:evenodd;stroke:none"
         id="path310"
         inkscape:connector-curvature="0" /><path
         d="m 371.2832,490.0884 c -0.07,-1.684 -1.234,-2.277 -1.461,-3.806 0.979,-1.649 3.734,-1.523 4.967,-2.92 0.644,0.034 0.127,1.241 0.297,1.754 1.121,0.054 0.105,-0.241 0.293,-0.878 3.072,2.355 -0.533,7.315 -4.096,5.85"
         style="fill:#333333;fill-opacity:1;fill-rule:evenodd;stroke:none"
         id="path314"
         inkscape:connector-curvature="0" /><path
         d="m 368.9375,484.2383 c -0.445,-1.559 -0.91,-4.46 -1.16,-5.263 1.939,0.478 1.963,-0.954 3.215,-1.167 1.92,0.705 3.109,2.147 4.093,3.799 -0.261,0.226 -0.664,0.317 -1.173,0.294 0.05,0.343 0.533,0.242 0.877,0.289 -0.516,2.112 -3.18,2.084 -5.852,2.048"
         style="fill:#333333;fill-opacity:1;fill-rule:evenodd;stroke:none"
         id="path318"
         inkscape:connector-curvature="0" /><path
         d="m 379.1738,481.6074 c -0.43,-0.964 -0.338,0.977 -1.17,0.583 -0.51,-4.208 4.174,-5.377 6.729,-3.215 -0.327,1.724 0.373,3.472 -0.877,4.677 -2.274,-0.416 -6.557,0.274 -4.682,-2.045"
         style="fill:#333333;fill-opacity:1;fill-rule:evenodd;stroke:none"
         id="path322"
         inkscape:connector-curvature="0" /><path
         d="m 377.4258,483.0688 c -0.684,0.095 -1.127,-0.049 -1.469,-0.293 0.059,-0.898 1.58,-0.612 1.469,0.293"
         style="fill:#333333;fill-opacity:1;fill-rule:evenodd;stroke:none"
         id="path326"
         inkscape:connector-curvature="0" /><path
         d="m 377.4258,481.0249 c -0.943,0.253 -0.609,-0.762 -1.17,-0.88 -0.375,0.071 -0.299,0.582 0,0.584 -3.445,0.599 -3.867,-6.424 -0.299,-7.017 0.793,0.867 2.149,1.17 3.514,1.461 0.461,3.096 -1.565,3.698 -2.045,5.852"
         style="fill:#333333;fill-opacity:1;fill-rule:evenodd;stroke:none"
         id="path330"
         inkscape:connector-curvature="0" /><path
         d="m 342.8711,526.6338 c 1.006,-0.295 0.922,0.502 1.783,0.356 0.44,-1.151 -1.162,-0.275 -0.711,-1.425 3.205,-0.007 5.502,0.905 6.408,3.205 -0.246,1.536 -1.443,2.121 -1.066,4.277 -4.357,2.147 -7.221,-1.265 -6.414,-6.413"
         style="fill:#333333;fill-opacity:1;fill-rule:evenodd;stroke:none"
         id="path334"
         inkscape:connector-curvature="0" /><path
         d="m 336.0977,533.4048 c -0.086,-2.05 -1.5,-2.778 -1.783,-4.635 1.195,-2.011 4.554,-1.861 6.064,-3.562 0.783,0.044 0.149,1.514 0.352,2.138 1.369,0.065 0.131,-0.291 0.355,-1.068 3.748,2.87 -0.642,8.913 -4.988,7.127"
         style="fill:#333333;fill-opacity:1;fill-rule:evenodd;stroke:none"
         id="path338"
         inkscape:connector-curvature="0" /><path
         d="m 333.25,526.2773 c -0.551,-1.897 -1.119,-5.438 -1.422,-6.415 2.36,0.582 2.395,-1.165 3.916,-1.425 2.346,0.86 3.789,2.624 4.986,4.632 -0.32,0.276 -0.804,0.386 -1.421,0.356 0.058,0.418 0.644,0.304 1.07,0.357 -0.635,2.573 -3.875,2.537 -7.129,2.495"
         style="fill:#333333;fill-opacity:1;fill-rule:evenodd;stroke:none"
         id="path342"
         inkscape:connector-curvature="0" /><path
         d="m 345.7207,523.0698 c -0.535,-1.172 -0.418,1.191 -1.426,0.713 -0.627,-5.128 5.078,-6.553 8.196,-3.921 -0.401,2.103 0.445,4.231 -1.067,5.703 -2.771,-0.511 -7.99,0.33 -5.703,-2.495"
         style="fill:#333333;fill-opacity:1;fill-rule:evenodd;stroke:none"
         id="path346"
         inkscape:connector-curvature="0" /><path
         d="m 343.5859,524.8521 c -0.828,0.115 -1.373,-0.058 -1.787,-0.357 0.064,-1.096 1.92,-0.747 1.787,0.357"
         style="fill:#333333;fill-opacity:1;fill-rule:evenodd;stroke:none"
         id="path350"
         inkscape:connector-curvature="0" /><path
         d="m 343.5859,522.3564 c -1.146,0.315 -0.744,-0.923 -1.43,-1.069 -0.453,0.09 -0.361,0.709 0,0.715 -4.193,0.726 -4.709,-7.831 -0.357,-8.554 0.959,1.06 2.609,1.429 4.273,1.785 0.567,3.767 -1.906,4.506 -2.486,7.123"
         style="fill:#333333;fill-opacity:1;fill-rule:evenodd;stroke:none"
         id="path354"
         inkscape:connector-curvature="0" /><path
         d="m 372.918,380.0176 c 1.008,-0.295 0.922,0.5 1.777,0.357 0.444,-1.155 -1.15,-0.273 -0.714,-1.426 3.218,-0.006 5.515,0.908 6.417,3.205 -0.24,1.534 -1.443,2.119 -1.068,4.277 -4.357,2.147 -7.221,-1.267 -6.412,-6.413"
         style="fill:#333333;fill-opacity:1;fill-rule:evenodd;stroke:none"
         id="path358"
         inkscape:connector-curvature="0" /><path
         d="m 366.1484,386.7861 c -0.084,-2.05 -1.494,-2.778 -1.787,-4.633 1.195,-2.012 4.557,-1.859 6.064,-3.564 0.787,0.046 0.149,1.512 0.354,2.138 1.369,0.066 0.129,-0.289 0.355,-1.069 3.746,2.871 -0.644,8.912 -4.986,7.128"
         style="fill:#333333;fill-opacity:1;fill-rule:evenodd;stroke:none"
         id="path362"
         inkscape:connector-curvature="0" /><path
         d="m 363.2988,379.6582 c -0.545,-1.898 -1.117,-5.433 -1.43,-6.411 2.368,0.583 2.401,-1.166 3.924,-1.427 2.346,0.864 3.787,2.621 4.986,4.634 -0.314,0.275 -0.798,0.384 -1.425,0.354 0.06,0.419 0.654,0.303 1.072,0.36 -0.637,2.571 -3.875,2.535 -7.127,2.49"
         style="fill:#333333;fill-opacity:1;fill-rule:evenodd;stroke:none"
         id="path366"
         inkscape:connector-curvature="0" /><path
         d="m 375.7676,376.4541 c -0.529,-1.176 -0.418,1.19 -1.422,0.714 -0.625,-5.132 5.084,-6.559 8.192,-3.921 -0.393,2.102 0.447,4.23 -1.069,5.701 -2.767,-0.512 -7.99,0.331 -5.701,-2.494"
         style="fill:#333333;fill-opacity:1;fill-rule:evenodd;stroke:none"
         id="path370"
         inkscape:connector-curvature="0" /><path
         d="m 373.6289,378.2354 c -0.82,0.111 -1.369,-0.058 -1.777,-0.356 0.064,-1.095 1.918,-0.75 1.777,0.356"
         style="fill:#333333;fill-opacity:1;fill-rule:evenodd;stroke:none"
         id="path374"
         inkscape:connector-curvature="0" /><path
         d="m 373.6289,375.7402 c -1.143,0.315 -0.736,-0.926 -1.426,-1.067 -0.445,0.088 -0.361,0.705 0,0.713 -4.185,0.726 -4.709,-7.832 -0.351,-8.551 0.959,1.055 2.611,1.425 4.279,1.78 0.557,3.77 -1.918,4.507 -2.502,7.125"
         style="fill:#333333;fill-opacity:1;fill-rule:evenodd;stroke:none"
         id="path378"
         inkscape:connector-curvature="0" /><path
         d="m 184.8242,396.7559 c 1.076,-0.314 0.984,0.535 1.902,0.387 0.473,-1.242 -1.234,-0.296 -0.765,-1.533 3.445,-0.003 5.906,0.973 6.875,3.437 -0.26,1.641 -1.549,2.268 -1.147,4.58 -4.666,2.298 -7.73,-1.357 -6.865,-6.871"
         style="fill:#333333;fill-opacity:1;fill-rule:evenodd;stroke:none"
         id="path382"
         inkscape:connector-curvature="0" /><path
         d="m 177.5684,404.0098 c -0.088,-2.197 -1.6,-2.979 -1.91,-4.963 1.281,-2.153 4.879,-1.997 6.494,-3.816 0.84,0.046 0.16,1.616 0.381,2.287 1.463,0.073 0.135,-0.31 0.379,-1.143 4.011,3.074 -0.692,9.542 -5.344,7.635"
         style="fill:#333333;fill-opacity:1;fill-rule:evenodd;stroke:none"
         id="path386"
         inkscape:connector-curvature="0" /><path
         d="m 174.5195,396.375 c -0.586,-2.038 -1.195,-5.82 -1.533,-6.867 2.535,0.623 2.574,-1.252 4.203,-1.531 2.51,0.925 4.059,2.808 5.344,4.961 -0.342,0.295 -0.86,0.415 -1.528,0.383 0.063,0.45 0.7,0.323 1.147,0.384 -0.68,2.756 -4.149,2.712 -7.633,2.67"
         style="fill:#333333;fill-opacity:1;fill-rule:evenodd;stroke:none"
         id="path390"
         inkscape:connector-curvature="0" /><path
         d="m 187.873,392.9385 c -0.566,-1.258 -0.447,1.276 -1.525,0.767 -0.668,-5.496 5.447,-7.025 8.775,-4.198 -0.424,2.251 0.48,4.532 -1.143,6.102 -2.964,-0.545 -8.556,0.361 -6.107,-2.671"
         style="fill:#333333;fill-opacity:1;fill-rule:evenodd;stroke:none"
         id="path394"
         inkscape:connector-curvature="0" /><path
         d="m 185.582,394.8477 c -0.879,0.122 -1.465,-0.062 -1.902,-0.379 0.068,-1.174 2.05,-0.803 1.902,0.379"
         style="fill:#333333;fill-opacity:1;fill-rule:evenodd;stroke:none"
         id="path398"
         inkscape:connector-curvature="0" /><path
         d="m 185.582,392.1768 c -1.223,0.336 -0.791,-0.989 -1.527,-1.143 -0.477,0.095 -0.385,0.754 0,0.762 -4.483,0.778 -5.041,-8.388 -0.375,-9.158 1.027,1.131 2.797,1.526 4.58,1.909 0.599,4.038 -2.049,4.824 -2.678,7.63"
         style="fill:#333333;fill-opacity:1;fill-rule:evenodd;stroke:none"
         id="path402"
         inkscape:connector-curvature="0" /><path
         d="m 77.5977,345.8164 c 1.076,-0.316 0.984,0.536 1.904,0.385 0.469,-1.239 -1.238,-0.295 -0.768,-1.53 3.444,-0.004 5.905,0.972 6.874,3.434 -0.259,1.643 -1.547,2.272 -1.144,4.581 -4.667,2.3 -7.733,-1.357 -6.866,-6.87"
         style="fill:#333333;fill-opacity:1;fill-rule:evenodd;stroke:none"
         id="path406"
         inkscape:connector-curvature="0" /><path
         d="m 70.3418,353.0684 c -0.088,-2.194 -1.601,-2.976 -1.911,-4.963 1.282,-2.153 4.88,-1.994 6.493,-3.814 0.844,0.048 0.161,1.615 0.382,2.287 1.464,0.072 0.136,-0.31 0.379,-1.143 4.012,3.072 -0.692,9.542 -5.343,7.633"
         style="fill:#333333;fill-opacity:1;fill-rule:evenodd;stroke:none"
         id="path410"
         inkscape:connector-curvature="0" /><path
         d="m 67.293,345.4355 c -0.585,-2.036 -1.197,-5.82 -1.533,-6.867 2.535,0.626 2.573,-1.251 4.201,-1.531 2.513,0.926 4.061,2.805 5.345,4.962 -0.342,0.295 -0.857,0.414 -1.527,0.381 0.063,0.449 0.7,0.325 1.145,0.388 -0.68,2.752 -4.149,2.711 -7.631,2.667"
         style="fill:#333333;fill-opacity:1;fill-rule:evenodd;stroke:none"
         id="path414"
         inkscape:connector-curvature="0" /><path
         d="m 80.6455,342 c -0.567,-1.256 -0.446,1.274 -1.524,0.769 -0.668,-5.498 5.446,-7.03 8.776,-4.201 -0.423,2.249 0.478,4.531 -1.144,6.104 -2.966,-0.547 -8.556,0.357 -6.108,-2.672"
         style="fill:#333333;fill-opacity:1;fill-rule:evenodd;stroke:none"
         id="path418"
         inkscape:connector-curvature="0" /><path
         d="m 78.3555,343.9082 c -0.879,0.123 -1.465,-0.063 -1.904,-0.381 0.068,-1.171 2.054,-0.802 1.904,0.381"
         style="fill:#333333;fill-opacity:1;fill-rule:evenodd;stroke:none"
         id="path422"
         inkscape:connector-curvature="0" /><path
         d="m 78.3555,341.2354 c -1.223,0.336 -0.791,-0.988 -1.527,-1.14 -0.477,0.095 -0.385,0.755 0,0.763 -4.483,0.774 -5.043,-8.389 -0.377,-9.162 1.031,1.136 2.799,1.527 4.584,1.909 0.596,4.038 -2.051,4.826 -2.68,7.63"
         style="fill:#333333;fill-opacity:1;fill-rule:evenodd;stroke:none"
         id="path426"
         inkscape:connector-curvature="0" /><path
         d="m 189.7969,319.8467 c 1.076,-0.318 0.984,0.537 1.906,0.384 0.467,-1.238 -1.238,-0.296 -0.771,-1.53 3.445,-0.004 5.906,0.972 6.875,3.434 -0.258,1.643 -1.547,2.268 -1.145,4.58 -4.668,2.298 -7.73,-1.357 -6.865,-6.868"
         style="fill:#333333;fill-opacity:1;fill-rule:evenodd;stroke:none"
         id="path430"
         inkscape:connector-curvature="0" /><path
         d="m 182.5391,327.0967 c -0.086,-2.195 -1.598,-2.977 -1.908,-4.962 1.283,-2.153 4.879,-1.994 6.492,-3.816 0.842,0.049 0.162,1.616 0.383,2.291 1.461,0.069 0.135,-0.314 0.379,-1.146 4.011,3.073 -0.694,9.541 -5.346,7.633"
         style="fill:#333333;fill-opacity:1;fill-rule:evenodd;stroke:none"
         id="path434"
         inkscape:connector-curvature="0" /><path
         d="m 179.4922,319.4639 c -0.586,-2.035 -1.197,-5.82 -1.533,-6.868 2.535,0.626 2.574,-1.251 4.201,-1.53 2.512,0.928 4.061,2.807 5.346,4.961 -0.344,0.295 -0.858,0.416 -1.528,0.382 0.063,0.45 0.698,0.327 1.145,0.388 -0.68,2.754 -4.149,2.713 -7.631,2.667"
         style="fill:#333333;fill-opacity:1;fill-rule:evenodd;stroke:none"
         id="path438"
         inkscape:connector-curvature="0" /><path
         d="m 192.8438,316.0273 c -0.566,-1.254 -0.447,1.278 -1.523,0.77 -0.668,-5.498 5.445,-7.029 8.775,-4.202 -0.422,2.251 0.48,4.533 -1.143,6.106 -2.964,-0.549 -8.556,0.356 -6.109,-2.674"
         style="fill:#333333;fill-opacity:1;fill-rule:evenodd;stroke:none"
         id="path442"
         inkscape:connector-curvature="0" /><path
         d="m 190.5547,317.9365 c -0.881,0.122 -1.465,-0.062 -1.904,-0.382 0.068,-1.168 2.052,-0.801 1.904,0.382"
         style="fill:#333333;fill-opacity:1;fill-rule:evenodd;stroke:none"
         id="path446"
         inkscape:connector-curvature="0" /><path
         d="m 190.5547,315.2637 c -1.221,0.338 -0.791,-0.988 -1.527,-1.141 -0.479,0.094 -0.385,0.758 0,0.765 -4.485,0.774 -5.041,-8.39 -0.377,-9.162 1.029,1.135 2.799,1.526 4.582,1.908 0.599,4.039 -2.049,4.828 -2.678,7.63"
         style="fill:#333333;fill-opacity:1;fill-rule:evenodd;stroke:none"
         id="path450"
         inkscape:connector-curvature="0" /><path
         d="m 148.0713,543.2871 c 1.077,-0.318 0.985,0.537 1.903,0.385 0.471,-1.239 -1.236,-0.297 -0.767,-1.531 3.445,-0.003 5.904,0.972 6.875,3.434 -0.258,1.644 -1.549,2.27 -1.145,4.583 -4.666,2.297 -7.732,-1.36 -6.866,-6.871"
         style="fill:#333333;fill-opacity:1;fill-rule:evenodd;stroke:none"
         id="path454"
         inkscape:connector-curvature="0" /><path
         d="m 140.8154,550.5376 c -0.088,-2.196 -1.601,-2.976 -1.911,-4.963 1.283,-2.153 4.881,-1.992 6.494,-3.815 0.844,0.049 0.16,1.616 0.381,2.291 1.465,0.069 0.137,-0.313 0.38,-1.147 4.01,3.073 -0.693,9.542 -5.344,7.634"
         style="fill:#333333;fill-opacity:1;fill-rule:evenodd;stroke:none"
         id="path458"
         inkscape:connector-curvature="0" /><path
         d="m 137.7676,542.9038 c -0.586,-2.034 -1.197,-5.818 -1.533,-6.867 2.535,0.625 2.572,-1.249 4.201,-1.53 2.512,0.929 4.061,2.806 5.344,4.964 -0.342,0.293 -0.856,0.414 -1.527,0.381 0.064,0.447 0.7,0.324 1.146,0.385 -0.681,2.753 -4.149,2.713 -7.631,2.667"
         style="fill:#333333;fill-opacity:1;fill-rule:evenodd;stroke:none"
         id="path462"
         inkscape:connector-curvature="0" /><path
         d="m 151.1191,539.4712 c -0.566,-1.257 -0.445,1.275 -1.525,0.766 -0.666,-5.495 5.447,-7.026 8.777,-4.2 -0.424,2.249 0.48,4.534 -1.145,6.104 -2.964,-0.547 -8.556,0.357 -6.107,-2.67"
         style="fill:#333333;fill-opacity:1;fill-rule:evenodd;stroke:none"
         id="path466"
         inkscape:connector-curvature="0" /><path
         d="m 148.8301,541.3789 c -0.879,0.123 -1.466,-0.063 -1.904,-0.383 0.068,-1.169 2.052,-0.801 1.904,0.383"
         style="fill:#333333;fill-opacity:1;fill-rule:evenodd;stroke:none"
         id="path470"
         inkscape:connector-curvature="0" /><path
         d="m 148.8301,538.7061 c -1.223,0.337 -0.791,-0.988 -1.527,-1.142 -0.477,0.096 -0.385,0.757 0,0.765 -4.484,0.773 -5.043,-8.388 -0.377,-9.162 1.03,1.134 2.799,1.528 4.582,1.909 0.599,4.038 -2.049,4.827 -2.678,7.63"
         style="fill:#333333;fill-opacity:1;fill-rule:evenodd;stroke:none"
         id="path474"
         inkscape:connector-curvature="0" /><path
         d="m 162.8691,582.5425 c 1.078,-0.314 0.986,0.536 1.906,0.387 0.469,-1.241 -1.238,-0.296 -0.769,-1.533 3.445,-0.004 5.904,0.974 6.875,3.438 -0.256,1.64 -1.545,2.269 -1.143,4.579 -4.668,2.299 -7.734,-1.357 -6.869,-6.871"
         style="fill:#333333;fill-opacity:1;fill-rule:evenodd;stroke:none"
         id="path478"
         inkscape:connector-curvature="0" /><path
         d="m 155.6172,589.7959 c -0.092,-2.195 -1.602,-2.977 -1.912,-4.962 1.281,-2.154 4.879,-1.996 6.494,-3.816 0.844,0.045 0.16,1.616 0.379,2.287 1.465,0.073 0.137,-0.311 0.381,-1.142 4.012,3.073 -0.692,9.542 -5.342,7.633"
         style="fill:#333333;fill-opacity:1;fill-rule:evenodd;stroke:none"
         id="path482"
         inkscape:connector-curvature="0" /><path
         d="m 152.5664,582.1631 c -0.584,-2.039 -1.199,-5.821 -1.533,-6.867 2.535,0.621 2.574,-1.253 4.201,-1.533 2.512,0.928 4.061,2.809 5.344,4.962 -0.34,0.296 -0.858,0.414 -1.524,0.384 0.061,0.449 0.696,0.322 1.145,0.383 -0.682,2.755 -4.151,2.713 -7.633,2.671"
         style="fill:#333333;fill-opacity:1;fill-rule:evenodd;stroke:none"
         id="path486"
         inkscape:connector-curvature="0" /><path
         d="m 165.918,578.7256 c -0.566,-1.256 -0.445,1.276 -1.525,0.766 -0.664,-5.495 5.447,-7.023 8.779,-4.195 -0.424,2.249 0.48,4.529 -1.147,6.1 -2.964,-0.544 -8.554,0.36 -6.107,-2.671"
         style="fill:#333333;fill-opacity:1;fill-rule:evenodd;stroke:none"
         id="path490"
         inkscape:connector-curvature="0" /><path
         d="m 163.6289,580.6343 c -0.879,0.122 -1.463,-0.062 -1.904,-0.379 0.068,-1.173 2.054,-0.801 1.904,0.379"
         style="fill:#333333;fill-opacity:1;fill-rule:evenodd;stroke:none"
         id="path494"
         inkscape:connector-curvature="0" /><path
         d="m 163.6289,577.9634 c -1.223,0.337 -0.789,-0.989 -1.527,-1.143 -0.477,0.097 -0.383,0.756 0,0.764 -4.483,0.777 -5.043,-8.389 -0.377,-9.159 1.031,1.13 2.8,1.525 4.584,1.909 0.595,4.038 -2.051,4.824 -2.68,7.629"
         style="fill:#333333;fill-opacity:1;fill-rule:evenodd;stroke:none"
         id="path498"
         inkscape:connector-curvature="0" /><path
         d="m 63.3555,458.251 c 1.076,-0.315 0.984,0.537 1.904,0.386 0.471,-1.24 -1.238,-0.295 -0.766,-1.532 3.446,-0.003 5.905,0.975 6.874,3.435 -0.26,1.644 -1.547,2.271 -1.145,4.581 -4.668,2.3 -7.732,-1.356 -6.867,-6.87"
         style="fill:#333333;fill-opacity:1;fill-rule:evenodd;stroke:none"
         id="path502"
         inkscape:connector-curvature="0" /><path
         d="m 56.1016,465.5029 c -0.089,-2.195 -1.603,-2.975 -1.912,-4.963 1.283,-2.153 4.882,-1.993 6.494,-3.814 0.844,0.048 0.162,1.616 0.381,2.288 1.463,0.071 0.137,-0.311 0.379,-1.143 4.012,3.072 -0.69,9.541 -5.342,7.632"
         style="fill:#333333;fill-opacity:1;fill-rule:evenodd;stroke:none"
         id="path506"
         inkscape:connector-curvature="0" /><path
         d="m 53.0508,457.8711 c -0.582,-2.037 -1.195,-5.819 -1.533,-6.867 2.537,0.624 2.576,-1.252 4.204,-1.532 2.511,0.927 4.058,2.806 5.343,4.963 -0.342,0.295 -0.86,0.415 -1.526,0.381 0.061,0.448 0.698,0.323 1.145,0.387 -0.682,2.754 -4.151,2.711 -7.633,2.668"
         style="fill:#333333;fill-opacity:1;fill-rule:evenodd;stroke:none"
         id="path510"
         inkscape:connector-curvature="0" /><path
         d="m 66.4063,454.4355 c -0.572,-1.256 -0.448,1.275 -1.526,0.768 -0.667,-5.497 5.446,-7.03 8.776,-4.2 -0.422,2.248 0.479,4.532 -1.143,6.102 -2.966,-0.547 -8.556,0.358 -6.107,-2.67"
         style="fill:#333333;fill-opacity:1;fill-rule:evenodd;stroke:none"
         id="path514"
         inkscape:connector-curvature="0" /><path
         d="m 64.1143,456.3438 c -0.878,0.122 -1.464,-0.063 -1.905,-0.382 0.069,-1.171 2.054,-0.801 1.905,0.382"
         style="fill:#333333;fill-opacity:1;fill-rule:evenodd;stroke:none"
         id="path518"
         inkscape:connector-curvature="0" /><path
         d="m 64.1143,453.6699 c -1.223,0.338 -0.79,-0.989 -1.525,-1.14 -0.48,0.096 -0.388,0.755 0,0.763 -4.484,0.775 -5.043,-8.388 -0.38,-9.16 1.031,1.134 2.801,1.527 4.584,1.907 0.597,4.04 -2.051,4.827 -2.679,7.63"
         style="fill:#333333;fill-opacity:1;fill-rule:evenodd;stroke:none"
         id="path522"
         inkscape:connector-curvature="0" /><path
         d="m 230.5156,435.3633 c 1.076,-0.318 0.982,0.536 1.904,0.383 0.469,-1.238 -1.238,-0.295 -0.769,-1.529 3.445,-0.004 5.906,0.97 6.875,3.433 -0.26,1.645 -1.545,2.268 -1.145,4.581 -4.666,2.298 -7.73,-1.358 -6.865,-6.868"
         style="fill:#333333;fill-opacity:1;fill-rule:evenodd;stroke:none"
         id="path526"
         inkscape:connector-curvature="0" /><path
         d="m 223.2617,442.6113 c -0.09,-2.195 -1.602,-2.974 -1.912,-4.961 1.281,-2.154 4.879,-1.994 6.496,-3.816 0.84,0.048 0.158,1.617 0.379,2.291 1.463,0.068 0.133,-0.314 0.377,-1.146 4.014,3.073 -0.688,9.541 -5.34,7.632"
         style="fill:#333333;fill-opacity:1;fill-rule:evenodd;stroke:none"
         id="path530"
         inkscape:connector-curvature="0" /><path
         d="m 220.209,434.9795 c -0.584,-2.034 -1.195,-5.82 -1.533,-6.866 2.537,0.623 2.574,-1.252 4.203,-1.531 2.512,0.925 4.059,2.806 5.346,4.96 -0.344,0.296 -0.86,0.415 -1.528,0.383 0.063,0.449 0.698,0.325 1.149,0.388 -0.684,2.753 -4.153,2.712 -7.637,2.666"
         style="fill:#333333;fill-opacity:1;fill-rule:evenodd;stroke:none"
         id="path534"
         inkscape:connector-curvature="0" /><path
         d="m 233.5625,431.543 c -0.57,-1.254 -0.443,1.28 -1.523,0.771 -0.666,-5.498 5.445,-7.029 8.777,-4.201 -0.424,2.248 0.476,4.532 -1.147,6.105 -2.962,-0.55 -8.556,0.356 -6.107,-2.675"
         style="fill:#333333;fill-opacity:1;fill-rule:evenodd;stroke:none"
         id="path538"
         inkscape:connector-curvature="0" /><path
         d="m 231.2754,433.4521 c -0.881,0.122 -1.465,-0.062 -1.906,-0.382 0.068,-1.169 2.054,-0.799 1.906,0.382"
         style="fill:#333333;fill-opacity:1;fill-rule:evenodd;stroke:none"
         id="path542"
         inkscape:connector-curvature="0" /><path
         d="m 231.2754,430.7793 c -1.223,0.338 -0.791,-0.988 -1.527,-1.139 -0.477,0.092 -0.389,0.756 0,0.764 -4.487,0.773 -5.043,-8.391 -0.379,-9.162 1.033,1.135 2.801,1.526 4.584,1.908 0.597,4.039 -2.053,4.829 -2.678,7.629"
         style="fill:#333333;fill-opacity:1;fill-rule:evenodd;stroke:none"
         id="path546"
         inkscape:connector-curvature="0" /><path
         d="m 287.4492,429.7715 c 1.076,-0.316 0.984,0.537 1.906,0.389 0.471,-1.243 -1.238,-0.299 -0.765,-1.534 3.443,-0.005 5.904,0.973 6.873,3.436 -0.262,1.641 -1.547,2.27 -1.145,4.58 -4.668,2.299 -7.734,-1.359 -6.869,-6.871"
         style="fill:#333333;fill-opacity:1;fill-rule:evenodd;stroke:none"
         id="path550"
         inkscape:connector-curvature="0" /><path
         d="m 280.1953,437.0234 c -0.086,-2.196 -1.602,-2.975 -1.91,-4.961 1.281,-2.156 4.881,-1.996 6.496,-3.814 0.84,0.045 0.16,1.613 0.377,2.287 1.465,0.068 0.139,-0.312 0.379,-1.147 4.012,3.074 -0.688,9.543 -5.342,7.635"
         style="fill:#333333;fill-opacity:1;fill-rule:evenodd;stroke:none"
         id="path554"
         inkscape:connector-curvature="0" /><path
         d="m 277.1445,429.3887 c -0.582,-2.035 -1.193,-5.817 -1.531,-6.865 2.537,0.623 2.574,-1.252 4.203,-1.531 2.508,0.927 4.06,2.808 5.342,4.96 -0.34,0.297 -0.86,0.416 -1.524,0.386 0.061,0.445 0.696,0.321 1.147,0.382 -0.684,2.756 -4.155,2.715 -7.637,2.668"
         style="fill:#333333;fill-opacity:1;fill-rule:evenodd;stroke:none"
         id="path558"
         inkscape:connector-curvature="0" /><path
         d="m 290.5,425.9531 c -0.572,-1.255 -0.447,1.277 -1.523,0.768 -0.668,-5.495 5.443,-7.024 8.773,-4.198 -0.422,2.246 0.479,4.532 -1.141,6.104 -2.968,-0.547 -8.556,0.357 -6.109,-2.674"
         style="fill:#333333;fill-opacity:1;fill-rule:evenodd;stroke:none"
         id="path562"
         inkscape:connector-curvature="0" /><path
         d="m 288.209,427.8633 c -0.879,0.121 -1.463,-0.062 -1.904,-0.383 0.068,-1.168 2.054,-0.799 1.904,0.383"
         style="fill:#333333;fill-opacity:1;fill-rule:evenodd;stroke:none"
         id="path566"
         inkscape:connector-curvature="0" /><path
         d="m 288.209,425.1934 c -1.221,0.337 -0.789,-0.99 -1.527,-1.143 -0.477,0.096 -0.383,0.755 0,0.762 -4.481,0.777 -5.043,-8.388 -0.377,-9.16 1.031,1.133 2.8,1.527 4.584,1.91 0.595,4.037 -2.053,4.824 -2.68,7.631"
         style="fill:#333333;fill-opacity:1;fill-rule:evenodd;stroke:none"
         id="path570"
         inkscape:connector-curvature="0" /><path
         d="m 412.6113,413.2842 c 1.076,-0.315 0.984,0.536 1.908,0.386 0.469,-1.24 -1.238,-0.295 -0.769,-1.532 3.445,-0.003 5.906,0.971 6.875,3.436 -0.256,1.643 -1.547,2.269 -1.149,4.582 -4.664,2.297 -7.73,-1.359 -6.865,-6.872"
         style="fill:#333333;fill-opacity:1;fill-rule:evenodd;stroke:none"
         id="path574"
         inkscape:connector-curvature="0" /><path
         d="m 405.3574,420.5371 c -0.09,-2.196 -1.6,-2.977 -1.91,-4.963 1.281,-2.152 4.881,-1.995 6.494,-3.817 0.84,0.05 0.16,1.618 0.379,2.291 1.467,0.069 0.137,-0.314 0.379,-1.145 4.013,3.072 -0.69,9.542 -5.342,7.634"
         style="fill:#333333;fill-opacity:1;fill-rule:evenodd;stroke:none"
         id="path578"
         inkscape:connector-curvature="0" /><path
         d="m 402.3125,412.9033 c -0.588,-2.036 -1.203,-5.821 -1.533,-6.866 2.531,0.623 2.57,-1.252 4.199,-1.532 2.514,0.927 4.057,2.807 5.342,4.963 -0.344,0.295 -0.856,0.414 -1.528,0.381 0.063,0.448 0.706,0.325 1.149,0.385 -0.68,2.752 -4.152,2.713 -7.629,2.669"
         style="fill:#333333;fill-opacity:1;fill-rule:evenodd;stroke:none"
         id="path582"
         inkscape:connector-curvature="0" /><path
         d="m 415.6621,409.4688 c -0.566,-1.258 -0.443,1.275 -1.527,0.766 -0.666,-5.496 5.449,-7.026 8.781,-4.198 -0.426,2.248 0.476,4.532 -1.147,6.102 -2.966,-0.546 -8.556,0.357 -6.107,-2.67"
         style="fill:#333333;fill-opacity:1;fill-rule:evenodd;stroke:none"
         id="path586"
         inkscape:connector-curvature="0" /><path
         d="m 413.375,411.377 c -0.883,0.121 -1.469,-0.064 -1.906,-0.383 0.066,-1.17 2.054,-0.801 1.906,0.383"
         style="fill:#333333;fill-opacity:1;fill-rule:evenodd;stroke:none"
         id="path590"
         inkscape:connector-curvature="0" /><path
         d="m 413.375,408.7031 c -1.227,0.338 -0.793,-0.989 -1.531,-1.141 -0.477,0.095 -0.381,0.756 0,0.764 -4.483,0.775 -5.043,-8.388 -0.375,-9.16 1.029,1.132 2.797,1.526 4.582,1.907 0.597,4.04 -2.051,4.827 -2.676,7.63"
         style="fill:#333333;fill-opacity:1;fill-rule:evenodd;stroke:none"
         id="path594"
         inkscape:connector-curvature="0" /><path
         d="m 173.4629,426.8789 c 0.654,-0.191 0.598,0.324 1.154,0.234 0.284,-0.752 -0.748,-0.181 -0.465,-0.927 2.084,-0.005 3.573,0.588 4.159,2.077 -0.155,0.996 -0.934,1.374 -0.69,2.774 -2.824,1.391 -4.681,-0.824 -4.158,-4.158"
         style="fill:#333333;fill-opacity:1;fill-rule:evenodd;stroke:none"
         id="path598"
         inkscape:connector-curvature="0" /><path
         d="m 169.0723,431.2656 c -0.053,-1.33 -0.965,-1.801 -1.154,-3.003 0.775,-1.304 2.951,-1.208 3.929,-2.31 0.512,0.033 0.098,0.979 0.229,1.385 0.889,0.042 0.084,-0.187 0.23,-0.689 2.43,1.859 -0.418,5.771 -3.234,4.617"
         style="fill:#333333;fill-opacity:1;fill-rule:evenodd;stroke:none"
         id="path602"
         inkscape:connector-curvature="0" /><path
         d="m 167.2305,426.6484 c -0.354,-1.234 -0.729,-3.521 -0.928,-4.156 1.533,0.377 1.557,-0.756 2.541,-0.926 1.522,0.561 2.457,1.699 3.233,3.001 -0.205,0.182 -0.516,0.253 -0.924,0.229 0.039,0.274 0.424,0.2 0.695,0.237 -0.41,1.664 -2.512,1.642 -4.617,1.615"
         style="fill:#333333;fill-opacity:1;fill-rule:evenodd;stroke:none"
         id="path606"
         inkscape:connector-curvature="0" /><path
         d="m 175.3105,424.5674 c -0.344,-0.758 -0.271,0.775 -0.922,0.466 -0.406,-3.328 3.295,-4.251 5.311,-2.541 -0.258,1.359 0.291,2.743 -0.694,3.693 -1.797,-0.33 -5.177,0.219 -3.695,-1.618"
         style="fill:#333333;fill-opacity:1;fill-rule:evenodd;stroke:none"
         id="path610"
         inkscape:connector-curvature="0" /><path
         d="m 173.9238,425.7246 c -0.531,0.074 -0.887,-0.037 -1.152,-0.233 0.041,-0.71 1.244,-0.484 1.152,0.233"
         style="fill:#333333;fill-opacity:1;fill-rule:evenodd;stroke:none"
         id="path614"
         inkscape:connector-curvature="0" /><path
         d="m 173.9238,424.1055 c -0.74,0.205 -0.479,-0.598 -0.922,-0.691 -0.289,0.061 -0.236,0.461 0,0.463 -2.717,0.469 -3.055,-5.077 -0.23,-5.543 0.623,0.685 1.693,0.922 2.773,1.157 0.361,2.439 -1.24,2.92 -1.621,4.614"
         style="fill:#333333;fill-opacity:1;fill-rule:evenodd;stroke:none"
         id="path618"
         inkscape:connector-curvature="0" /><path
         d="m 257.3008,570.9199 c 1.078,-0.316 0.988,0.536 1.91,0.387 0.465,-1.241 -1.238,-0.297 -0.773,-1.533 3.449,-0.004 5.906,0.974 6.875,3.436 -0.256,1.642 -1.545,2.27 -1.143,4.581 -4.668,2.299 -7.734,-1.359 -6.869,-6.871"
         style="fill:#333333;fill-opacity:1;fill-rule:evenodd;stroke:none"
         id="path622"
         inkscape:connector-curvature="0" /><path
         d="m 250.0469,578.1738 c -0.088,-2.198 -1.598,-2.978 -1.908,-4.964 1.279,-2.154 4.877,-1.994 6.494,-3.815 0.844,0.046 0.156,1.615 0.377,2.288 1.469,0.071 0.139,-0.311 0.379,-1.144 4.015,3.073 -0.688,9.544 -5.342,7.635"
         style="fill:#333333;fill-opacity:1;fill-rule:evenodd;stroke:none"
         id="path626"
         inkscape:connector-curvature="0" /><path
         d="m 246.998,570.5386 c -0.584,-2.037 -1.197,-5.818 -1.531,-6.867 2.535,0.623 2.574,-1.251 4.203,-1.531 2.51,0.928 4.058,2.809 5.34,4.963 -0.338,0.295 -0.856,0.414 -1.524,0.383 0.061,0.447 0.698,0.322 1.147,0.383 -0.682,2.755 -4.151,2.713 -7.635,2.669"
         style="fill:#333333;fill-opacity:1;fill-rule:evenodd;stroke:none"
         id="path630"
         inkscape:connector-curvature="0" /><path
         d="m 260.3516,567.1035 c -0.568,-1.257 -0.447,1.276 -1.523,0.766 -0.668,-5.495 5.447,-7.024 8.777,-4.198 -0.426,2.25 0.478,4.532 -1.147,6.102 -2.964,-0.543 -8.554,0.359 -6.107,-2.67"
         style="fill:#333333;fill-opacity:1;fill-rule:evenodd;stroke:none"
         id="path634"
         inkscape:connector-curvature="0" /><path
         d="m 258.0605,569.0117 c -0.879,0.122 -1.463,-0.062 -1.9,-0.382 0.064,-1.17 2.054,-0.801 1.9,0.382"
         style="fill:#333333;fill-opacity:1;fill-rule:evenodd;stroke:none"
         id="path638"
         inkscape:connector-curvature="0" /><path
         d="m 258.0605,566.3408 c -1.221,0.337 -0.789,-0.989 -1.523,-1.143 -0.479,0.097 -0.387,0.756 0,0.764 -4.485,0.775 -5.047,-8.389 -0.377,-9.159 1.027,1.133 2.796,1.525 4.58,1.909 0.599,4.036 -2.049,4.824 -2.68,7.629"
         style="fill:#333333;fill-opacity:1;fill-rule:evenodd;stroke:none"
         id="path642"
         inkscape:connector-curvature="0" /><path
         d="m 310.5137,360.5439 c 1.078,-0.315 0.986,0.538 1.91,0.386 0.467,-1.24 -1.238,-0.294 -0.771,-1.532 3.445,0 5.906,0.972 6.875,3.437 -0.256,1.643 -1.547,2.269 -1.145,4.581 -4.668,2.297 -7.734,-1.357 -6.869,-6.872"
         style="fill:#333333;fill-opacity:1;fill-rule:evenodd;stroke:none"
         id="path646"
         inkscape:connector-curvature="0" /><path
         d="m 303.2598,367.7969 c -0.086,-2.196 -1.596,-2.977 -1.908,-4.962 1.283,-2.153 4.879,-1.995 6.492,-3.818 0.846,0.051 0.162,1.619 0.379,2.291 1.469,0.071 0.139,-0.314 0.379,-1.144 4.017,3.072 -0.69,9.542 -5.342,7.633"
         style="fill:#333333;fill-opacity:1;fill-rule:evenodd;stroke:none"
         id="path650"
         inkscape:connector-curvature="0" /><path
         d="m 300.2148,360.1641 c -0.588,-2.035 -1.199,-5.822 -1.533,-6.867 2.533,0.624 2.572,-1.252 4.199,-1.534 2.514,0.929 4.061,2.809 5.342,4.965 -0.34,0.294 -0.852,0.413 -1.524,0.382 0.061,0.448 0.702,0.324 1.145,0.387 -0.676,2.751 -4.152,2.71 -7.629,2.667"
         style="fill:#333333;fill-opacity:1;fill-rule:evenodd;stroke:none"
         id="path654"
         inkscape:connector-curvature="0" /><path
         d="m 313.5645,356.7285 c -0.566,-1.256 -0.443,1.275 -1.523,0.769 -0.668,-5.498 5.449,-7.029 8.777,-4.201 -0.424,2.248 0.48,4.531 -1.145,6.102 -2.964,-0.545 -8.556,0.358 -6.109,-2.67"
         style="fill:#333333;fill-opacity:1;fill-rule:evenodd;stroke:none"
         id="path658"
         inkscape:connector-curvature="0" /><path
         d="m 311.2773,358.6377 c -0.879,0.122 -1.467,-0.064 -1.902,-0.382 0.062,-1.172 2.05,-0.802 1.902,0.382"
         style="fill:#333333;fill-opacity:1;fill-rule:evenodd;stroke:none"
         id="path662"
         inkscape:connector-curvature="0" /><path
         d="m 311.2773,355.9629 c -1.227,0.337 -0.793,-0.989 -1.529,-1.141 -0.479,0.096 -0.383,0.756 0,0.766 -4.485,0.774 -5.041,-8.391 -0.373,-9.162 1.025,1.134 2.795,1.527 4.578,1.908 0.601,4.039 -2.047,4.828 -2.676,7.629"
         style="fill:#333333;fill-opacity:1;fill-rule:evenodd;stroke:none"
         id="path666"
         inkscape:connector-curvature="0" /><path
         d="m 285.0625,341.3896 c 1.283,0.239 0.74,1.074 1.775,1.399 1.135,-1.038 -1.127,-0.955 0.004,-1.989 3.567,1.804 5.6,4.101 5.315,7.158 -1.127,1.565 -2.789,1.537 -3.59,4.14 -6.029,-0.066 -7.285,-5.457 -3.504,-10.708"
         style="fill:#333333;fill-opacity:1;fill-rule:evenodd;stroke:none"
         id="path670"
         inkscape:connector-curvature="0" /><path
         d="m 273.7598,345.0957 c 1.055,-2.318 -0.096,-3.917 0.623,-6.136 2.451,-1.559 6.094,0.491 8.719,-0.547 0.847,0.491 -0.684,1.754 -0.807,2.567 1.481,0.84 0.305,-0.252 0.994,-0.986 2.541,5.284 -5.718,9.513 -9.529,5.102"
         style="fill:#333333;fill-opacity:1;fill-rule:evenodd;stroke:none"
         id="path674"
         inkscape:connector-curvature="0" /><path
         d="m 274.6055,335.5977 c 0.461,-2.412 1.809,-6.649 2.012,-7.906 2.291,1.97 3.318,0.053 5.15,0.617 2.111,2.275 2.729,5.028 2.926,7.932 -0.508,0.127 -1.104,-0.02 -1.777,-0.403 -0.17,0.494 0.55,0.701 0.986,0.998 -2.151,2.493 -5.717,0.632 -9.297,-1.238"
         style="fill:#333333;fill-opacity:1;fill-rule:evenodd;stroke:none"
         id="path678"
         inkscape:connector-curvature="0" /><path
         d="m 290.2207,339.04 c 0.068,-1.599 -1.131,1.086 -1.979,-0.006 2.19,-6.035 9.319,-4.417 11.284,0.255 -1.619,2.105 -1.881,4.939 -4.385,5.714 -2.781,-2.118 -9.043,-4.11 -4.92,-5.963"
         style="fill:#333333;fill-opacity:1;fill-rule:evenodd;stroke:none"
         id="path682"
         inkscape:connector-curvature="0" /><path
         d="m 286.8535,339.8154 c -0.979,-0.337 -1.482,-0.832 -1.773,-1.395 0.683,-1.173 2.544,0.25 1.773,1.395"
         style="fill:#333333;fill-opacity:1;fill-rule:evenodd;stroke:none"
         id="path686"
         inkscape:connector-curvature="0" /><path
         d="m 288.252,337.0488 c -1.439,-0.291 -0.299,-1.438 -0.982,-1.981 -0.545,-0.151 -0.793,0.581 -0.399,0.793 -5.051,-1.55 -0.826,-11.326 4.408,-9.679 0.471,1.712 2.09,3.045 3.741,4.375 -1.495,4.492 -4.651,3.921 -6.768,6.492"
         style="fill:#333333;fill-opacity:1;fill-rule:evenodd;stroke:none"
         id="path690"
         inkscape:connector-curvature="0" /><path
         d="m 383.6016,324.0996 c 0.932,-0.273 0.85,0.464 1.65,0.334 0.407,-1.073 -1.07,-0.256 -0.666,-1.325 2.981,-0.003 5.108,0.841 5.946,2.97 -0.221,1.421 -1.338,1.962 -0.987,3.961 -4.043,1.986 -6.689,-1.172 -5.943,-5.94"
         style="fill:#333333;fill-opacity:1;fill-rule:evenodd;stroke:none"
         id="path694"
         inkscape:connector-curvature="0" /><path
         d="m 377.3301,330.3691 c -0.078,-1.897 -1.385,-2.57 -1.652,-4.291 1.109,-1.86 4.22,-1.724 5.619,-3.3 0.726,0.042 0.133,1.4 0.324,1.982 1.268,0.06 0.121,-0.271 0.328,-0.99 3.469,2.656 -0.596,8.251 -4.619,6.599"
         style="fill:#333333;fill-opacity:1;fill-rule:evenodd;stroke:none"
         id="path698"
         inkscape:connector-curvature="0" /><path
         d="m 374.6953,323.7705 c -0.504,-1.763 -1.037,-5.033 -1.324,-5.937 2.193,0.539 2.222,-1.083 3.633,-1.325 2.171,0.802 3.505,2.426 4.617,4.292 -0.295,0.253 -0.738,0.357 -1.319,0.33 0.055,0.386 0.608,0.28 0.995,0.332 -0.592,2.381 -3.592,2.347 -6.602,2.308"
         style="fill:#333333;fill-opacity:1;fill-rule:evenodd;stroke:none"
         id="path702"
         inkscape:connector-curvature="0" /><path
         d="m 386.2383,320.8008 c -0.488,-1.088 -0.387,1.104 -1.318,0.662 -0.577,-4.751 4.709,-6.076 7.591,-3.629 -0.367,1.945 0.415,3.917 -0.988,5.275 -2.568,-0.472 -7.402,0.31 -5.285,-2.308"
         style="fill:#333333;fill-opacity:1;fill-rule:evenodd;stroke:none"
         id="path706"
         inkscape:connector-curvature="0" /><path
         d="m 384.2578,322.4492 c -0.758,0.107 -1.266,-0.054 -1.643,-0.329 0.057,-1.013 1.778,-0.692 1.643,0.329"
         style="fill:#333333;fill-opacity:1;fill-rule:evenodd;stroke:none"
         id="path710"
         inkscape:connector-curvature="0" /><path
         d="m 384.2578,320.1377 c -1.053,0.292 -0.684,-0.854 -1.316,-0.986 -0.416,0.082 -0.336,0.654 0,0.661 -3.879,0.671 -4.362,-7.254 -0.327,-7.921 0.889,0.979 2.422,1.321 3.961,1.651 0.518,3.491 -1.769,4.173 -2.318,6.595"
         style="fill:#333333;fill-opacity:1;fill-rule:evenodd;stroke:none"
         id="path714"
         inkscape:connector-curvature="0" /><path
         d="m 189.084,456.2266 c 0.65,-0.19 0.596,0.328 1.154,0.234 0.284,-0.75 -0.748,-0.176 -0.466,-0.925 2.085,-0.003 3.574,0.589 4.162,2.079 -0.159,0.993 -0.938,1.372 -0.696,2.77 -2.824,1.393 -4.675,-0.822 -4.154,-4.158"
         style="fill:#333333;fill-opacity:1;fill-rule:evenodd;stroke:none"
         id="path718"
         inkscape:connector-curvature="0" /><path
         d="m 184.6934,460.6172 c -0.055,-1.33 -0.967,-1.801 -1.154,-3.003 0.771,-1.304 2.953,-1.208 3.927,-2.309 0.51,0.031 0.1,0.979 0.231,1.384 0.885,0.042 0.082,-0.187 0.228,-0.691 2.432,1.857 -0.418,5.773 -3.232,4.619"
         style="fill:#333333;fill-opacity:1;fill-rule:evenodd;stroke:none"
         id="path722"
         inkscape:connector-curvature="0" /><path
         d="m 182.8496,455.998 c -0.355,-1.232 -0.725,-3.521 -0.928,-4.155 1.533,0.376 1.557,-0.758 2.541,-0.926 1.522,0.56 2.457,1.698 3.235,3.002 -0.207,0.179 -0.52,0.251 -0.922,0.229 0.035,0.273 0.424,0.199 0.691,0.235 -0.412,1.667 -2.512,1.642 -4.617,1.615"
         style="fill:#333333;fill-opacity:1;fill-rule:evenodd;stroke:none"
         id="path726"
         inkscape:connector-curvature="0" /><path
         d="m 190.9297,453.9189 c -0.344,-0.761 -0.271,0.772 -0.922,0.464 -0.406,-3.326 3.295,-4.252 5.309,-2.54 -0.256,1.36 0.289,2.741 -0.692,3.692 -1.793,-0.331 -5.177,0.219 -3.695,-1.616"
         style="fill:#333333;fill-opacity:1;fill-rule:evenodd;stroke:none"
         id="path730"
         inkscape:connector-curvature="0" /><path
         d="m 189.543,455.0742 c -0.531,0.073 -0.887,-0.038 -1.152,-0.23 0.043,-0.71 1.244,-0.487 1.152,0.23"
         style="fill:#333333;fill-opacity:1;fill-rule:evenodd;stroke:none"
         id="path734"
         inkscape:connector-curvature="0" /><path
         d="m 189.543,453.457 c -0.74,0.204 -0.479,-0.6 -0.922,-0.691 -0.289,0.058 -0.232,0.458 0,0.461 -2.717,0.469 -3.055,-5.075 -0.23,-5.541 0.625,0.685 1.695,0.921 2.773,1.154 0.361,2.442 -1.24,2.92 -1.621,4.617"
         style="fill:#333333;fill-opacity:1;fill-rule:evenodd;stroke:none"
         id="path738"
         inkscape:connector-curvature="0" /><path
         d="m 306.5918,555.2607 c 1.076,-0.316 0.984,0.536 1.908,0.385 0.465,-1.239 -1.236,-0.295 -0.771,-1.531 3.443,-0.004 5.904,0.972 6.875,3.435 -0.256,1.642 -1.549,2.269 -1.147,4.58 -4.666,2.299 -7.734,-1.357 -6.865,-6.869"
         style="fill:#333333;fill-opacity:1;fill-rule:evenodd;stroke:none"
         id="path742"
         inkscape:connector-curvature="0" /><path
         d="m 299.3379,562.5127 c -0.09,-2.196 -1.598,-2.978 -1.908,-4.963 1.279,-2.153 4.877,-1.996 6.488,-3.816 0.846,0.048 0.162,1.617 0.381,2.289 1.469,0.071 0.141,-0.312 0.381,-1.144 4.015,3.074 -0.692,9.542 -5.342,7.634"
         style="fill:#333333;fill-opacity:1;fill-rule:evenodd;stroke:none"
         id="path746"
         inkscape:connector-curvature="0" /><path
         d="m 296.2891,554.8789 c -0.584,-2.037 -1.199,-5.82 -1.531,-6.866 2.535,0.622 2.57,-1.254 4.199,-1.534 2.514,0.928 4.059,2.809 5.342,4.963 -0.342,0.295 -0.854,0.414 -1.524,0.383 0.061,0.449 0.7,0.325 1.143,0.386 -0.678,2.752 -4.149,2.712 -7.629,2.668"
         style="fill:#333333;fill-opacity:1;fill-rule:evenodd;stroke:none"
         id="path750"
         inkscape:connector-curvature="0" /><path
         d="m 309.6387,551.4424 c -0.566,-1.256 -0.445,1.277 -1.523,0.768 -0.665,-5.497 5.449,-7.026 8.781,-4.198 -0.428,2.25 0.476,4.529 -1.149,6.102 -2.964,-0.546 -8.552,0.359 -6.109,-2.672"
         style="fill:#333333;fill-opacity:1;fill-rule:evenodd;stroke:none"
         id="path754"
         inkscape:connector-curvature="0" /><path
         d="m 307.3496,553.3506 c -0.877,0.122 -1.465,-0.062 -1.9,-0.38 0.064,-1.171 2.054,-0.801 1.9,0.38"
         style="fill:#333333;fill-opacity:1;fill-rule:evenodd;stroke:none"
         id="path758"
         inkscape:connector-curvature="0" /><path
         d="m 307.3496,550.6792 c -1.225,0.337 -0.789,-0.989 -1.523,-1.142 -0.481,0.096 -0.387,0.757 0,0.765 -4.485,0.775 -5.045,-8.391 -0.377,-9.161 1.027,1.135 2.798,1.525 4.578,1.909 0.601,4.038 -2.047,4.826 -2.678,7.629"
         style="fill:#333333;fill-opacity:1;fill-rule:evenodd;stroke:none"
         id="path762"
         inkscape:connector-curvature="0" /><path
         d="m 280.6113,396.2227 c 0.74,-0.218 0.676,0.369 1.314,0.265 0.319,-0.855 -0.855,-0.204 -0.531,-1.055 2.375,-0.004 4.072,0.672 4.737,2.369 -0.176,1.13 -1.065,1.563 -0.788,3.157 -3.214,1.584 -5.334,-0.937 -4.732,-4.736"
         style="fill:#333333;fill-opacity:1;fill-rule:evenodd;stroke:none"
         id="path766"
         inkscape:connector-curvature="0" /><path
         d="m 275.6094,401.2207 c -0.061,-1.514 -1.104,-2.052 -1.318,-3.419 0.884,-1.487 3.363,-1.377 4.476,-2.633 0.58,0.034 0.11,1.114 0.264,1.578 1.006,0.051 0.098,-0.214 0.26,-0.789 2.769,2.119 -0.473,6.579 -3.682,5.263"
         style="fill:#333333;fill-opacity:1;fill-rule:evenodd;stroke:none"
         id="path770"
         inkscape:connector-curvature="0" /><path
         d="m 273.5059,395.958 c -0.402,-1.401 -0.824,-4.012 -1.053,-4.732 1.744,0.428 1.772,-0.863 2.897,-1.058 1.732,0.641 2.797,1.936 3.681,3.422 -0.236,0.203 -0.589,0.288 -1.054,0.264 0.041,0.307 0.482,0.222 0.791,0.265 -0.469,1.899 -2.862,1.87 -5.262,1.839"
         style="fill:#333333;fill-opacity:1;fill-rule:evenodd;stroke:none"
         id="path774"
         inkscape:connector-curvature="0" /><path
         d="m 282.7129,393.5898 c -0.393,-0.866 -0.311,0.881 -1.053,0.529 -0.459,-3.787 3.754,-4.843 6.053,-2.893 -0.293,1.549 0.33,3.123 -0.789,4.207 -2.045,-0.377 -5.9,0.245 -4.211,-1.843"
         style="fill:#333333;fill-opacity:1;fill-rule:evenodd;stroke:none"
         id="path778"
         inkscape:connector-curvature="0" /><path
         d="m 281.1309,394.9063 c -0.604,0.084 -1.008,-0.044 -1.311,-0.262 0.047,-0.808 1.418,-0.551 1.311,0.262"
         style="fill:#333333;fill-opacity:1;fill-rule:evenodd;stroke:none"
         id="path782"
         inkscape:connector-curvature="0" /><path
         d="m 281.1309,393.0654 c -0.84,0.23 -0.545,-0.682 -1.049,-0.788 -0.332,0.067 -0.265,0.52 0,0.526 -3.092,0.533 -3.48,-5.781 -0.262,-6.314 0.709,0.782 1.932,1.052 3.159,1.314 0.414,2.785 -1.412,3.328 -1.848,5.262"
         style="fill:#333333;fill-opacity:1;fill-rule:evenodd;stroke:none"
         id="path786"
         inkscape:connector-curvature="0" /><path
         d="m 270.3203,533.2974 c 0.496,-0.146 0.453,0.249 0.887,0.18 0.217,-0.575 -0.576,-0.138 -0.362,-0.711 1.608,-0.003 2.746,0.451 3.202,1.596 -0.127,0.769 -0.723,1.058 -0.53,2.135 -2.177,1.069 -3.603,-0.633 -3.197,-3.2"
         style="fill:#333333;fill-opacity:1;fill-rule:evenodd;stroke:none"
         id="path790"
         inkscape:connector-curvature="0" /><path
         d="m 266.9414,536.6719 c -0.041,-1.021 -0.75,-1.384 -0.883,-2.31 0.594,-1.003 2.266,-0.926 3.01,-1.773 0.396,0.022 0.082,0.75 0.182,1.065 0.679,0.031 0.064,-0.146 0.177,-0.534 1.871,1.434 -0.328,4.442 -2.486,3.552"
         style="fill:#333333;fill-opacity:1;fill-rule:evenodd;stroke:none"
         id="path794"
         inkscape:connector-curvature="0" /><path
         d="m 265.5254,533.1196 c -0.279,-0.947 -0.563,-2.711 -0.717,-3.195 1.184,0.292 1.199,-0.58 1.957,-0.71 1.166,0.427 1.891,1.308 2.485,2.307 -0.157,0.136 -0.403,0.191 -0.707,0.178 0.027,0.207 0.324,0.151 0.525,0.176 -0.314,1.286 -1.928,1.265 -3.543,1.244"
         style="fill:#333333;fill-opacity:1;fill-rule:evenodd;stroke:none"
         id="path798"
         inkscape:connector-curvature="0" /><path
         d="m 271.7402,531.5215 c -0.266,-0.584 -0.215,0.596 -0.719,0.354 -0.304,-2.556 2.537,-3.265 4.092,-1.951 -0.203,1.043 0.225,2.109 -0.533,2.842 -1.385,-0.256 -3.983,0.163 -2.84,-1.245"
         style="fill:#333333;fill-opacity:1;fill-rule:evenodd;stroke:none"
         id="path802"
         inkscape:connector-curvature="0" /><path
         d="m 270.666,532.4082 c -0.412,0.057 -0.678,-0.027 -0.887,-0.176 0.039,-0.544 0.959,-0.372 0.887,0.176"
         style="fill:#333333;fill-opacity:1;fill-rule:evenodd;stroke:none"
         id="path806"
         inkscape:connector-curvature="0" /><path
         d="m 270.666,531.1689 c -0.564,0.151 -0.367,-0.464 -0.707,-0.535 -0.221,0.044 -0.18,0.357 0,0.357 -2.09,0.36 -2.354,-3.905 -0.18,-4.261 0.475,0.528 1.307,0.708 2.137,0.886 0.283,1.878 -0.951,2.244 -1.25,3.553"
         style="fill:#333333;fill-opacity:1;fill-rule:evenodd;stroke:none"
         id="path810"
         inkscape:connector-curvature="0" /><path
         d="m 323.8438,484.2744 c 0.506,-0.148 0.461,0.252 0.891,0.177 0.224,-0.573 -0.578,-0.134 -0.358,-0.71 1.602,-0.003 2.746,0.453 3.194,1.6 -0.122,0.763 -0.715,1.055 -0.534,2.133 -2.168,1.07 -3.588,-0.632 -3.193,-3.2"
         style="fill:#333333;fill-opacity:1;fill-rule:evenodd;stroke:none"
         id="path814"
         inkscape:connector-curvature="0" /><path
         d="m 320.4766,487.6489 c -0.049,-1.017 -0.752,-1.386 -0.896,-2.307 0.593,-1.006 2.273,-0.934 3.025,-1.776 0.391,0.022 0.078,0.754 0.176,1.064 0.681,0.035 0.064,-0.145 0.175,-0.533 1.872,1.431 -0.326,4.442 -2.48,3.552"
         style="fill:#333333;fill-opacity:1;fill-rule:evenodd;stroke:none"
         id="path818"
         inkscape:connector-curvature="0" /><path
         d="m 319.0508,484.0967 c -0.27,-0.945 -0.563,-2.711 -0.711,-3.194 1.176,0.291 1.199,-0.582 1.955,-0.712 1.168,0.428 1.893,1.305 2.486,2.306 -0.16,0.139 -0.402,0.192 -0.709,0.18 0.034,0.209 0.319,0.152 0.534,0.176 -0.319,1.283 -1.936,1.265 -3.555,1.244"
         style="fill:#333333;fill-opacity:1;fill-rule:evenodd;stroke:none"
         id="path822"
         inkscape:connector-curvature="0" /><path
         d="m 325.2695,482.4966 c -0.27,-0.583 -0.213,0.598 -0.711,0.356 -0.309,-2.556 2.529,-3.265 4.08,-1.95 -0.197,1.043 0.227,2.107 -0.531,2.839 -1.381,-0.255 -3.981,0.164 -2.838,-1.245"
         style="fill:#333333;fill-opacity:1;fill-rule:evenodd;stroke:none"
         id="path826"
         inkscape:connector-curvature="0" /><path
         d="m 324.1973,483.3853 c -0.408,0.06 -0.68,-0.026 -0.883,-0.174 0.033,-0.546 0.955,-0.373 0.883,0.174"
         style="fill:#333333;fill-opacity:1;fill-rule:evenodd;stroke:none"
         id="path830"
         inkscape:connector-curvature="0" /><path
         d="m 324.1973,482.1431 c -0.566,0.155 -0.357,-0.459 -0.705,-0.531 -0.221,0.045 -0.178,0.352 0,0.353 -2.09,0.363 -2.35,-3.901 -0.178,-4.259 0.477,0.525 1.301,0.712 2.131,0.885 0.283,1.881 -0.951,2.245 -1.248,3.552"
         style="fill:#333333;fill-opacity:1;fill-rule:evenodd;stroke:none"
         id="path834"
         inkscape:connector-curvature="0" /><path
         d="m 76.5918,502.8364 c 0.615,-0.176 0.563,0.307 1.082,0.218 0.27,-0.697 -0.693,-0.164 -0.432,-0.865 1.95,-0.003 3.336,0.552 3.882,1.941 -0.149,0.932 -0.872,1.286 -0.643,2.593 -2.645,1.302 -4.374,-0.767 -3.889,-3.887"
         style="fill:#333333;fill-opacity:1;fill-rule:evenodd;stroke:none"
         id="path838"
         inkscape:connector-curvature="0" /><path
         d="m 72.4961,506.9399 c -0.057,-1.24 -0.91,-1.685 -1.076,-2.809 0.719,-1.217 2.756,-1.125 3.668,-2.156 0.475,0.026 0.089,0.915 0.213,1.294 0.83,0.039 0.079,-0.176 0.22,-0.647 2.268,1.735 -0.398,5.4 -3.025,4.318"
         style="fill:#333333;fill-opacity:1;fill-rule:evenodd;stroke:none"
         id="path842"
         inkscape:connector-curvature="0" /><path
         d="m 70.7725,502.6216 c -0.334,-1.148 -0.677,-3.292 -0.868,-3.883 1.436,0.354 1.456,-0.706 2.376,-0.863 1.419,0.522 2.296,1.584 3.02,2.806 -0.191,0.166 -0.484,0.231 -0.863,0.216 0.034,0.251 0.397,0.181 0.65,0.215 -0.386,1.56 -2.349,1.536 -4.315,1.509"
         style="fill:#333333;fill-opacity:1;fill-rule:evenodd;stroke:none"
         id="path846"
         inkscape:connector-curvature="0" /><path
         d="m 78.3193,500.6812 c -0.318,-0.711 -0.251,0.722 -0.86,0.431 -0.376,-3.104 3.076,-3.97 4.96,-2.374 -0.24,1.271 0.278,2.562 -0.644,3.451 -1.678,-0.311 -4.842,0.201 -3.456,-1.508"
         style="fill:#333333;fill-opacity:1;fill-rule:evenodd;stroke:none"
         id="path850"
         inkscape:connector-curvature="0" /><path
         d="m 77.0254,501.7578 c -0.5,0.069 -0.826,-0.032 -1.08,-0.216 0.044,-0.659 1.167,-0.449 1.08,0.216"
         style="fill:#333333;fill-opacity:1;fill-rule:evenodd;stroke:none"
         id="path854"
         inkscape:connector-curvature="0" /><path
         d="m 77.0254,500.2505 c -0.689,0.188 -0.449,-0.561 -0.863,-0.65 -0.27,0.052 -0.217,0.429 0,0.432 -2.539,0.445 -2.852,-4.742 -0.217,-5.178 0.589,0.64 1.588,0.865 2.592,1.079 0.342,2.283 -1.153,2.728 -1.512,4.317"
         style="fill:#333333;fill-opacity:1;fill-rule:evenodd;stroke:none"
         id="path858"
         inkscape:connector-curvature="0" /><path
         d="m 146.1377,347.3027 c 0.651,-0.188 0.595,0.322 1.147,0.229 0.285,-0.739 -0.741,-0.174 -0.46,-0.914 2.06,-0.002 3.535,0.582 4.115,2.057 -0.155,0.989 -0.928,1.358 -0.686,2.743 -2.795,1.38 -4.629,-0.811 -4.116,-4.115"
         style="fill:#333333;fill-opacity:1;fill-rule:evenodd;stroke:none"
         id="path862"
         inkscape:connector-curvature="0" /><path
         d="m 141.7979,351.6475 c -0.059,-1.313 -0.96,-1.78 -1.144,-2.973 0.767,-1.293 2.922,-1.192 3.885,-2.282 0.507,0.026 0.101,0.969 0.232,1.368 0.879,0.042 0.086,-0.188 0.229,-0.682 2.402,1.839 -0.418,5.713 -3.202,4.569"
         style="fill:#333333;fill-opacity:1;fill-rule:evenodd;stroke:none"
         id="path866"
         inkscape:connector-curvature="0" /><path
         d="m 139.9707,347.0781 c -0.351,-1.22 -0.719,-3.488 -0.916,-4.114 1.516,0.371 1.545,-0.749 2.514,-0.916 1.509,0.551 2.437,1.681 3.202,2.972 -0.205,0.177 -0.518,0.243 -0.915,0.226 0.037,0.268 0.416,0.194 0.683,0.233 -0.406,1.648 -2.482,1.622 -4.568,1.599"
         style="fill:#333333;fill-opacity:1;fill-rule:evenodd;stroke:none"
         id="path870"
         inkscape:connector-curvature="0" /><path
         d="m 147.9707,345.0205 c -0.342,-0.753 -0.268,0.763 -0.918,0.459 -0.397,-3.292 3.264,-4.207 5.262,-2.516 -0.256,1.347 0.281,2.711 -0.688,3.655 -1.777,-0.327 -5.129,0.213 -3.656,-1.598"
         style="fill:#333333;fill-opacity:1;fill-rule:evenodd;stroke:none"
         id="path874"
         inkscape:connector-curvature="0" /><path
         d="m 146.5977,346.1611 c -0.531,0.074 -0.877,-0.038 -1.141,-0.229 0.043,-0.701 1.229,-0.475 1.141,0.229"
         style="fill:#333333;fill-opacity:1;fill-rule:evenodd;stroke:none"
         id="path878"
         inkscape:connector-curvature="0" /><path
         d="m 146.5977,344.5615 c -0.733,0.2 -0.475,-0.594 -0.914,-0.685 -0.287,0.058 -0.233,0.455 0,0.458 -2.684,0.467 -3.025,-5.023 -0.227,-5.487 0.614,0.677 1.672,0.916 2.743,1.147 0.361,2.412 -1.226,2.888 -1.602,4.567"
         style="fill:#333333;fill-opacity:1;fill-rule:evenodd;stroke:none"
         id="path882"
         inkscape:connector-curvature="0" /><path
         d="m 94.3633,395.876 c 1.006,-0.295 0.921,0.501 1.779,0.356 0.438,-1.151 -1.156,-0.275 -0.713,-1.425 3.213,-0.008 5.508,0.907 6.414,3.208 -0.249,1.534 -1.445,2.116 -1.068,4.274 -4.361,2.148 -7.221,-1.264 -6.412,-6.413"
         style="fill:#333333;fill-opacity:1;fill-rule:evenodd;stroke:none"
         id="path886"
         inkscape:connector-curvature="0" /><path
         d="m 87.5908,402.6445 c -0.088,-2.046 -1.501,-2.776 -1.78,-4.63 1.191,-2.017 4.551,-1.862 6.052,-3.564 0.793,0.043 0.156,1.512 0.361,2.135 1.364,0.068 0.128,-0.289 0.354,-1.066 3.748,2.869 -0.648,8.914 -4.987,7.125"
         style="fill:#333333;fill-opacity:1;fill-rule:evenodd;stroke:none"
         id="path890"
         inkscape:connector-curvature="0" /><path
         d="m 84.7393,395.5195 c -0.544,-1.901 -1.114,-5.438 -1.427,-6.416 2.374,0.585 2.403,-1.161 3.924,-1.425 2.346,0.863 3.79,2.623 4.987,4.632 -0.318,0.277 -0.806,0.386 -1.422,0.358 0.052,0.417 0.644,0.302 1.062,0.358 -0.631,2.572 -3.875,2.53 -7.124,2.493"
         style="fill:#333333;fill-opacity:1;fill-rule:evenodd;stroke:none"
         id="path894"
         inkscape:connector-curvature="0" /><path
         d="m 97.2109,392.3105 c -0.531,-1.176 -0.418,1.197 -1.424,0.716 -0.623,-5.13 5.08,-6.555 8.195,-3.923 -0.396,2.102 0.447,4.231 -1.068,5.703 -2.769,-0.513 -7.99,0.33 -5.703,-2.496"
         style="fill:#333333;fill-opacity:1;fill-rule:evenodd;stroke:none"
         id="path898"
         inkscape:connector-curvature="0" /><path
         d="m 95.0723,394.0938 c -0.826,0.113 -1.367,-0.06 -1.777,-0.357 0.062,-1.094 1.918,-0.747 1.777,0.357"
         style="fill:#333333;fill-opacity:1;fill-rule:evenodd;stroke:none"
         id="path902"
         inkscape:connector-curvature="0" /><path
         d="m 95.0723,391.5996 c -1.142,0.313 -0.736,-0.924 -1.425,-1.071 -0.447,0.092 -0.36,0.711 0,0.716 -4.188,0.729 -4.714,-7.828 -0.352,-8.554 0.957,1.058 2.605,1.428 4.273,1.779 0.565,3.772 -1.909,4.511 -2.496,7.13"
         style="fill:#333333;fill-opacity:1;fill-rule:evenodd;stroke:none"
         id="path906"
         inkscape:connector-curvature="0" /><path
         d="m 404.4922,370.3926 c 0.641,-0.189 0.594,0.32 1.148,0.227 0.28,-0.739 -0.746,-0.174 -0.46,-0.914 2.06,-10e-4 3.527,0.582 4.111,2.057 -0.153,0.984 -0.924,1.359 -0.686,2.743 -2.795,1.381 -4.633,-0.814 -4.113,-4.113"
         style="fill:#333333;fill-opacity:1;fill-rule:evenodd;stroke:none"
         id="path910"
         inkscape:connector-curvature="0" /><path
         d="m 400.1484,374.7363 c -0.055,-1.316 -0.963,-1.783 -1.141,-2.974 0.766,-1.292 2.92,-1.194 3.889,-2.286 0.502,0.028 0.092,0.97 0.227,1.373 0.877,0.04 0.08,-0.188 0.226,-0.686 2.403,1.844 -0.416,5.718 -3.201,4.573"
         style="fill:#333333;fill-opacity:1;fill-rule:evenodd;stroke:none"
         id="path914"
         inkscape:connector-curvature="0" /><path
         d="m 398.3223,370.1631 c -0.35,-1.218 -0.717,-3.485 -0.914,-4.114 1.521,0.376 1.539,-0.744 2.516,-0.913 1.505,0.551 2.435,1.682 3.199,2.967 -0.203,0.181 -0.518,0.249 -0.912,0.232 0.035,0.268 0.418,0.195 0.685,0.228 -0.408,1.653 -2.488,1.625 -4.574,1.6"
         style="fill:#333333;fill-opacity:1;fill-rule:evenodd;stroke:none"
         id="path918"
         inkscape:connector-curvature="0" /><path
         d="m 406.3164,368.1035 c -0.338,-0.752 -0.258,0.767 -0.906,0.46 -0.393,-3.291 3.256,-4.204 5.25,-2.515 -0.248,1.35 0.293,2.714 -0.678,3.658 -1.777,-0.325 -5.131,0.213 -3.666,-1.603"
         style="fill:#333333;fill-opacity:1;fill-rule:evenodd;stroke:none"
         id="path922"
         inkscape:connector-curvature="0" /><path
         d="m 404.9512,369.249 c -0.529,0.071 -0.877,-0.036 -1.139,-0.229 0.035,-0.702 1.223,-0.479 1.139,0.229"
         style="fill:#333333;fill-opacity:1;fill-rule:evenodd;stroke:none"
         id="path926"
         inkscape:connector-curvature="0" /><path
         d="m 404.9512,367.6484 c -0.736,0.2 -0.477,-0.593 -0.912,-0.686 -0.293,0.06 -0.233,0.456 0,0.458 -2.688,0.47 -3.027,-5.021 -0.227,-5.487 0.614,0.684 1.67,0.918 2.741,1.145 0.361,2.418 -1.225,2.891 -1.602,4.57"
         style="fill:#333333;fill-opacity:1;fill-rule:evenodd;stroke:none"
         id="path930"
         inkscape:connector-curvature="0" /><path
         d="m 145.1748,485.2329 c 0.644,-0.188 0.588,0.322 1.14,0.229 0.283,-0.737 -0.737,-0.174 -0.461,-0.913 2.062,-0.002 3.535,0.584 4.117,2.059 -0.16,0.981 -0.928,1.354 -0.686,2.741 -2.796,1.375 -4.631,-0.814 -4.11,-4.116"
         style="fill:#333333;fill-opacity:1;fill-rule:evenodd;stroke:none"
         id="path934"
         inkscape:connector-curvature="0" /><path
         d="m 140.8281,489.5786 c -0.053,-1.315 -0.959,-1.784 -1.137,-2.971 0.758,-1.294 2.92,-1.196 3.881,-2.287 0.504,0.027 0.096,0.967 0.229,1.369 0.877,0.043 0.084,-0.188 0.226,-0.683 2.408,1.84 -0.41,5.718 -3.199,4.572"
         style="fill:#333333;fill-opacity:1;fill-rule:evenodd;stroke:none"
         id="path938"
         inkscape:connector-curvature="0" /><path
         d="m 139.001,485.0063 c -0.351,-1.218 -0.718,-3.487 -0.914,-4.113 1.52,0.373 1.54,-0.749 2.514,-0.916 1.505,0.549 2.433,1.683 3.2,2.971 -0.203,0.176 -0.514,0.245 -0.914,0.227 0.034,0.27 0.418,0.195 0.685,0.229 -0.406,1.653 -2.484,1.626 -4.571,1.602"
         style="fill:#333333;fill-opacity:1;fill-rule:evenodd;stroke:none"
         id="path942"
         inkscape:connector-curvature="0" /><path
         d="m 147.002,482.9482 c -0.341,-0.754 -0.27,0.764 -0.914,0.456 -0.404,-3.288 3.258,-4.203 5.256,-2.511 -0.256,1.346 0.283,2.711 -0.688,3.656 -1.771,-0.329 -5.124,0.212 -3.654,-1.601"
         style="fill:#333333;fill-opacity:1;fill-rule:evenodd;stroke:none"
         id="path946"
         inkscape:connector-curvature="0" /><path
         d="m 145.6289,484.0938 c -0.529,0.071 -0.872,-0.039 -1.143,-0.231 0.043,-0.703 1.235,-0.482 1.143,0.231"
         style="fill:#333333;fill-opacity:1;fill-rule:evenodd;stroke:none"
         id="path950"
         inkscape:connector-curvature="0" /><path
         d="m 145.6289,482.4922 c -0.73,0.197 -0.471,-0.591 -0.914,-0.686 -0.283,0.054 -0.232,0.453 0,0.457 -2.687,0.467 -3.025,-5.023 -0.229,-5.485 0.618,0.679 1.678,0.912 2.743,1.143 0.361,2.418 -1.225,2.888 -1.6,4.571"
         style="fill:#333333;fill-opacity:1;fill-rule:evenodd;stroke:none"
         id="path954"
         inkscape:connector-curvature="0" /><path
         d="m 112.5889,452.9346 c 0.972,-0.286 0.893,0.483 1.723,0.343 0.426,-1.115 -1.114,-0.262 -0.688,-1.378 3.109,-0.005 5.326,0.876 6.21,3.102 -0.238,1.487 -1.402,2.055 -1.039,4.14 -4.221,2.079 -6.991,-1.224 -6.206,-6.207"
         style="fill:#333333;fill-opacity:1;fill-rule:evenodd;stroke:none"
         id="path958"
         inkscape:connector-curvature="0" /><path
         d="m 106.0293,459.4883 c -0.085,-1.984 -1.451,-2.689 -1.722,-4.486 1.156,-1.948 4.411,-1.803 5.868,-3.449 0.76,0.043 0.147,1.462 0.342,2.07 1.325,0.064 0.125,-0.28 0.344,-1.034 3.627,2.781 -0.627,8.628 -4.832,6.899"
         style="fill:#333333;fill-opacity:1;fill-rule:evenodd;stroke:none"
         id="path962"
         inkscape:connector-curvature="0" /><path
         d="m 103.2754,452.5889 c -0.533,-1.841 -1.084,-5.263 -1.381,-6.21 2.287,0.564 2.321,-1.131 3.795,-1.378 2.274,0.831 3.669,2.535 4.828,4.484 -0.308,0.267 -0.775,0.371 -1.381,0.339 0.053,0.407 0.63,0.295 1.038,0.346 -0.617,2.496 -3.754,2.461 -6.899,2.419"
         style="fill:#333333;fill-opacity:1;fill-rule:evenodd;stroke:none"
         id="path966"
         inkscape:connector-curvature="0" /><path
         d="m 115.3477,449.4844 c -0.513,-1.139 -0.406,1.154 -1.381,0.686 -0.601,-4.963 4.92,-6.343 7.934,-3.791 -0.379,2.031 0.437,4.093 -1.036,5.52 -2.679,-0.495 -7.73,0.319 -5.517,-2.415"
         style="fill:#333333;fill-opacity:1;fill-rule:evenodd;stroke:none"
         id="path970"
         inkscape:connector-curvature="0" /><path
         d="m 113.2773,451.207 c -0.802,0.112 -1.324,-0.055 -1.729,-0.344 0.071,-1.062 1.862,-0.723 1.729,0.344"
         style="fill:#333333;fill-opacity:1;fill-rule:evenodd;stroke:none"
         id="path974"
         inkscape:connector-curvature="0" /><path
         d="m 113.2773,448.7949 c -1.106,0.301 -0.715,-0.898 -1.382,-1.037 -0.432,0.086 -0.347,0.685 0,0.691 -4.059,0.705 -4.561,-7.582 -0.347,-8.277 0.936,1.023 2.535,1.375 4.145,1.721 0.545,3.65 -1.85,4.363 -2.416,6.902"
         style="fill:#333333;fill-opacity:1;fill-rule:evenodd;stroke:none"
         id="path978"
         inkscape:connector-curvature="0" /></g></g></svg>